#N canvas 660 111 1144 915 10;
#X obj 305 31 vsl 15 80 0 1 0 0 empty volume-set empty 0 -8 0 8 -262144
-1 -1 3350 1;
#X text 278 29 vol;
#X obj 305 135 s vol;
#X obj 305 13 tgl 15 0 empty empty empty 17 7 0 10 -262144 -1 -1 1
1;
#N canvas 0 22 450 300 (subpatch) 0;
#X array sample-table1 4096 float 0;
#X coords 0 1 4095 -1 200 140 1;
#X restore 304 -134 graph;
#N canvas 0 22 450 300 (subpatch) 0;
#X array master 100 float 1;
#A 0 0 0 0 0 0 0 0 0 0 0 0 0 0 0 0 0 0 0 0 0 0 0 0 0 0 0 0 0 0 0 0
0 0 0 0 0 0 0 0 0 0 0 0 0 0 0 0 0 0 0 0 0 0 0 0 0 0 0 0 0 0 0 0 0 0
0 0 0 0 0 0 0 0 0 0 0 0 0 0 0 0 0 0 0 0 0 0 0 0 0 0 0 0 0 0 0 0 0 0
0;
#X coords 0 1 99 -1 200 140 1;
#X restore 304 170 graph;
#X obj 29 197 hsl 200 12 1 4096 0 0 in_out in_in empty -2 -6 0 8 -262144
-1 -1 3200 1;
#X obj 29 209 hsl 200 12 1 4096 0 0 out_out out_in empty -2 -6 0 8
-262144 -1 -1 19900 1;
#X text 231 195 IN;
#X text 232 207 OUT;
#X obj 26 172 cnv 15 100 24 empty sample_display 62079 5 12 0 12 -233017
-66577 0;
#X obj 31 60 s rate;
#X msg 66 7 44.1;
#X msg 66 25 32;
#X msg 66 -11 48;
#X obj 305 116 pack 0 10;
#X obj 29 221 hsl 200 12 1 2385 0 0 nope playhead empty -2 -6 0 8 -99865
-262144 -1 19900 1;
#X text 232 219 Play;
#X obj 29 233 hsl 200 12 2 0.1 0 0 speed speed_in empty -2 -6 0 8 -262144
-1 -1 9824 1;
#X text 233 231 Speed;
#X obj 30 -125 cnv 15 40 25 empty empty 1 10 14 0 32 -233017 -235206
0;
#X msg 31 -94 bang;
#X text 73 -118 load Sample;
#X obj 323 14 cnv 15 40 25 empty empty 2 10 14 0 32 -233017 -235206
0;
#X text 366 21 turn up volume;
#X text 222 245 x2;
#X text 127 245 x1;
#X text 20 246 x0.1;
#N canvas 26 70 1702 962 stuff 1;
#X obj 24 2 inlet;
#X obj 504 18 loadbang;
#X msg 504 37 1;
#X obj 503 57 s speed_in;
#X obj 502 79 s ldb;
#X msg 490 98 \; pd dsp 1;
#X obj 298 156 dac~;
#X obj 309 37 catch~;
#X obj 367 67 tabwrite~ master;
#X obj 368 43 metro 50;
#X obj 368 26 tgl 15 0 empty empty empty 17 7 0 10 -262144 -1 -1 1
1;
#X text 387 25 Oscilloscope;
#X obj 368 8 r ldb;
#X obj 83 85 soundfiler;
#X msg 83 67 read -resize \$1 sample-table1;
#X obj 176 140 s in_in;
#X obj 112 146 s out_in;
#X msg 176 108 range 1 \$1;
#X obj 724 3 r in_out;
#X obj 656 20 r out_out;
#X obj 724 39 -;
#X obj 724 21 t b f;
#X obj 804 83 abs;
#X msg 796 110 set \$1;
#X obj 725 93 / 44.1;
#X obj 729 57 r rate;
#X obj 729 75 t b f;
#X obj 127 111 t f f;
#X obj 753 156 * 1;
#X obj 729 111 r speed;
#X obj 732 131 t b f;
#X obj 83 49 openpanel;
#X obj 25 23 trigger bang bang;
#X msg 16 63 \; in_out 1;
#X msg 594 45 set \$1;
#X obj 592 17 r out_out;
#X obj 594 64 s end;
#X obj 796 139 s start;
#X obj 55 188 r shake1;
#X obj 131 189 r shake2;
#X obj 207 189 r shake3;
#X obj 282 190 r shake4;
#X obj 353 189 r shake5;
#X obj 353 218 shakeit;
#X obj 302 126 *~;
#X obj 338 112 line~;
#X obj 396 88 r master-vol;
#X obj 56 217 shakeit;
#X obj 131 218 shakeit;
#X obj 207 218 shakeit;
#X obj 283 219 shakeit;
#X connect 0 0 32 0;
#X connect 1 0 2 0;
#X connect 1 0 4 0;
#X connect 1 0 5 0;
#X connect 2 0 3 0;
#X connect 7 0 8 0;
#X connect 7 0 44 0;
#X connect 9 0 8 0;
#X connect 10 0 9 0;
#X connect 12 0 10 0;
#X connect 13 0 27 0;
#X connect 14 0 13 0;
#X connect 17 0 16 0;
#X connect 17 0 15 0;
#X connect 18 0 21 0;
#X connect 19 0 20 0;
#X connect 20 0 24 0;
#X connect 21 0 20 0;
#X connect 21 1 20 1;
#X connect 22 0 23 0;
#X connect 23 0 37 0;
#X connect 24 0 28 0;
#X connect 25 0 26 0;
#X connect 26 0 24 0;
#X connect 26 1 24 1;
#X connect 27 0 16 0;
#X connect 27 1 17 0;
#X connect 28 0 22 0;
#X connect 29 0 30 0;
#X connect 30 0 28 0;
#X connect 30 1 28 1;
#X connect 31 0 14 0;
#X connect 32 0 33 0;
#X connect 32 1 31 0;
#X connect 34 0 36 0;
#X connect 35 0 34 0;
#X connect 38 0 47 0;
#X connect 39 0 48 0;
#X connect 40 0 49 0;
#X connect 41 0 50 0;
#X connect 42 0 43 0;
#X connect 44 0 6 0;
#X connect 44 0 6 1;
#X connect 45 0 44 1;
#X connect 46 0 45 0;
#X restore 31 -66 pd stuff;
#X floatatom 81 -83 5 0 1e+06 0 - - -, f 5;
#X text 82 -99 Pause;
#X text 26 -27 kHz Samplerate;
#X obj 27 142 cnv 15 40 25 empty empty 3 10 14 0 32 -233017 -235206
0;
#X text 70 149 choose IN/OUT-Point and Speed;
#X text 99 8 default;
#X obj 469 29 vsl 15 80 0 1 0 0 empty empty empty 0 -9 0 10 -262144
-1 -1 7500 1;
#X obj 471 116 s master-vol;
#X text 134 175 Sample length;
#X obj 158 -62 s half;
#X obj 158 -92 tgl 15 0 empty empty empty 17 7 0 10 -262144 -1 -1 1
1;
#X connect 0 0 15 0;
#X connect 3 0 0 0;
#X connect 12 0 11 0;
#X connect 13 0 11 0;
#X connect 14 0 11 0;
#X connect 15 0 2 0;
#X connect 21 0 28 0;
#X connect 35 0 36 0;
#X connect 39 0 38 0;
