#N canvas 324 194 751 793 10;
#X obj 169 362 throw~;
#X obj 40 297 tabread4~ sample-table1;
#X msg 120 176 163.522;
#X obj 63 197 pack f f;
#X obj 64 223 t l b;
#X msg 91 250 1;
#X msg 66 156 7135;
#X obj 64 276 vline~;
#X obj 93 123 t b b;
#X obj 282 123 r vol;
#X obj 46 122 r end;
#X obj 130 143 r start;
#X obj 174 337 *~;
#X obj 222 296 line~;
#X obj 120 30 sel 0;
#X floatatom 282 165 5 0 0 0 - - -, f 5;
#X obj 247 193 *;
#X obj 120 7 inlet;
#X obj 246 221 / 50;
#X floatatom 237 266 5 0 0 0 - - -, f 5;
#X obj 247 244 *;
#X obj 99 61 moses 0;
#X obj 135 96 spigot;
#X obj 188 52 tgl 15 0 empty empty empty 17 7 0 10 -262144 -1 -1 0
1;
#X obj 191 12 r half;
#X connect 1 0 12 0;
#X connect 2 0 3 1;
#X connect 3 0 4 0;
#X connect 4 0 7 0;
#X connect 4 1 5 0;
#X connect 5 0 7 0;
#X connect 6 0 3 0;
#X connect 7 0 1 0;
#X connect 8 0 6 0;
#X connect 8 1 2 0;
#X connect 9 0 15 0;
#X connect 10 0 6 0;
#X connect 11 0 2 0;
#X connect 12 0 0 0;
#X connect 13 0 12 1;
#X connect 14 1 16 0;
#X connect 14 1 21 0;
#X connect 15 0 16 1;
#X connect 16 0 18 0;
#X connect 17 0 14 0;
#X connect 18 0 20 0;
#X connect 18 0 20 1;
#X connect 19 0 13 0;
#X connect 20 0 19 0;
#X connect 21 0 8 0;
#X connect 21 1 22 0;
#X connect 22 0 8 0;
#X connect 23 0 22 1;
#X connect 24 0 23 0;
