#N canvas 960 54 960 998 10;
#X obj 276 38 ctlin;
#X floatatom 276 298 5 0 0 0 - - -, f 5;
#X obj 292 255 -;
#X obj 289 188 moses 63;
#X obj 342 210 t b;
#X obj 321 131 sel;
#X obj 338 106 + 73;
#X obj 151 231 * 127;
#X obj 242 329 +;
#X obj 293 158 f;
#X obj 136 316 f;
#X obj 173 294 clip 0 127;
#X obj 153 349 / 127;
#X floatatom 207 375 5 0 0 0 - - -, f 5;
#X msg 286 418 send /P\$2Ctrl \$1;
#X obj 152 174 routeOSC /P\$1Ctrl;
#X obj 356 61 f \$1;
#X floatatom 397 105 5 0 0 0 - - -, f 5;
#X obj 287 392 pack f f;
#X obj 350 22 loadbang;
#X obj 322 237 f 128;
#X obj 213 451 outlet;
#X obj 96 122 r knobs-oscIn;
#X obj 285 448 s knobs-oscOut;
#X obj 493 272;
#X obj 38 174 routeOSC /P\$1Desc;
#X msg 37 217 label \$1;
#X obj 38 193 symbol;
#X obj 37 241 s p\$1Desc;
#X connect 0 0 9 1;
#X connect 0 1 5 0;
#X connect 1 0 8 0;
#X connect 2 0 1 0;
#X connect 3 0 1 0;
#X connect 3 1 2 0;
#X connect 3 1 4 0;
#X connect 4 0 20 0;
#X connect 5 0 9 0;
#X connect 6 0 5 1;
#X connect 7 0 10 0;
#X connect 8 0 11 0;
#X connect 9 0 3 0;
#X connect 10 0 8 1;
#X connect 10 0 12 0;
#X connect 11 0 10 0;
#X connect 12 0 13 0;
#X connect 13 0 18 0;
#X connect 13 0 21 0;
#X connect 14 0 23 0;
#X connect 15 0 7 0;
#X connect 16 0 6 0;
#X connect 16 0 17 0;
#X connect 17 0 18 1;
#X connect 18 0 14 0;
#X connect 19 0 16 0;
#X connect 20 0 2 1;
#X connect 22 0 15 0;
#X connect 22 0 25 0;
#X connect 25 0 27 0;
#X connect 26 0 28 0;
#X connect 27 0 26 0;
