#N canvas 814 158 798 539 10;
#X declare -path externals;
#N canvas 948 54 960 997 module 0;
#X obj 171 21 ctlin;
#X floatatom 171 281 5 0 0 0 - - -, f 5;
#X obj 187 238 -;
#X obj 184 171 moses 63;
#X obj 237 193 t b;
#X obj 216 114 sel;
#X obj 188 141 f;
#X floatatom 292 88 5 0 0 0 - - -, f 5;
#X obj 217 220 f 128;
#X msg 42 416 send /ModulePrev 1;
#X msg 181 416 send /ModuleNext 1;
#X obj 251 44 loadbang;
#X obj 312 270 symbol;
#X obj 312 245 routeOSC /module;
#X msg 348 309 label \$1;
#X obj 137 312 +;
#X obj 31 299 f 0;
#X floatatom 31 324 5 0 0 0 - - -, f 5;
#X obj 68 277 clip -10 10;
#X obj 32 346 sel -10 10;
#X obj 80 384 bng 15 250 50 0 empty empty empty 17 7 0 10 -262144 -1
-1;
#X obj 130 357 f 0;
#X obj 347 339 outlet;
#X obj 312 214 r knobs-oscIn;
#X obj 180 462 s knobs-oscOut;
#X obj 41 462 s knobs-oscOut;
#X obj 243 310 s moduleSel;
#X obj 40 438 debounce 100;
#X obj 180 437 debounce 100;
#X obj 233 88 f 62;
#X connect 0 0 6 1;
#X connect 0 1 5 0;
#X connect 1 0 15 0;
#X connect 2 0 1 0;
#X connect 3 0 1 0;
#X connect 3 1 2 0;
#X connect 3 1 4 0;
#X connect 4 0 8 0;
#X connect 5 0 6 0;
#X connect 6 0 3 0;
#X connect 8 0 2 1;
#X connect 9 0 27 0;
#X connect 10 0 28 0;
#X connect 11 0 7 0;
#X connect 11 0 29 0;
#X connect 12 0 14 0;
#X connect 12 0 26 0;
#X connect 13 0 12 0;
#X connect 14 0 22 0;
#X connect 15 0 18 0;
#X connect 16 0 15 1;
#X connect 16 0 17 0;
#X connect 17 0 19 0;
#X connect 18 0 16 0;
#X connect 19 0 9 0;
#X connect 19 0 20 0;
#X connect 19 1 10 0;
#X connect 19 1 20 0;
#X connect 20 0 21 0;
#X connect 21 0 16 0;
#X connect 23 0 13 0;
#X connect 27 0 25 0;
#X connect 28 0 24 0;
#X connect 29 0 5 1;
#X restore 148 151 pd module;
#X obj 148 171 s module;
#N canvas 136 100 1211 933 page 0;
#X obj 193 11 ctlin;
#X floatatom 191 246 5 0 0 0 - - -, f 5;
#X obj 207 203 -;
#X obj 204 136 moses 63;
#X obj 257 158 t b;
#X obj 236 79 sel;
#X obj 208 106 f;
#X obj 237 185 f 128;
#X obj 271 9 loadbang;
#X obj 324 164 symbol;
#X msg 412 273 label \$1;
#X obj 157 277 +;
#X obj 51 264 f 0;
#X floatatom 51 289 5 0 0 0 - - -, f 5;
#X obj 88 242 clip -10 10;
#X obj 52 311 sel -10 10;
#X obj 100 349 bng 15 250 50 0 empty empty empty 17 7 0 10 -262144
-1 -1;
#X obj 150 322 f 0;
#X obj 411 298 outlet;
#X msg 63 377 send /PagePrev 1;
#X msg 201 376 send /PageNext 1;
#X obj 336 105 routeOSC /page;
#X obj 246 12 bng 15 250 50 0 empty empty empty 17 7 0 10 -262144 -1
-1;
#X obj 336 76 r knobs-oscIn;
#X obj 201 422 s knobs-oscOut;
#X obj 64 424 s knobs-oscOut;
#X msg 371 138 label;
#X obj 410 235 s p4Desc;
#X obj 410 164 s p1Desc;
#X obj 410 188 s p2Desc;
#X obj 410 210 s p3Desc;
#X obj 339 425 s serialOscOut;
#X obj 266 300 list;
#X obj 302 273 list;
#X obj 304 244 r moduleSel;
#X msg 338 367 send /header \$2 \$1;
#X obj 201 397 debounce 100;
#X obj 63 402 debounce 100;
#X obj 338 397 debounce 100;
#X obj 253 53 f 63;
#X connect 0 0 6 1;
#X connect 0 1 5 0;
#X connect 1 0 11 0;
#X connect 2 0 1 0;
#X connect 3 0 1 0;
#X connect 3 1 2 0;
#X connect 3 1 4 0;
#X connect 4 0 7 0;
#X connect 5 0 6 0;
#X connect 6 0 3 0;
#X connect 7 0 2 1;
#X connect 8 0 39 0;
#X connect 9 0 10 0;
#X connect 9 0 32 0;
#X connect 10 0 18 0;
#X connect 11 0 14 0;
#X connect 12 0 11 1;
#X connect 12 0 13 0;
#X connect 13 0 15 0;
#X connect 14 0 12 0;
#X connect 15 0 16 0;
#X connect 15 0 19 0;
#X connect 15 1 20 0;
#X connect 15 1 16 0;
#X connect 16 0 17 0;
#X connect 17 0 12 0;
#X connect 19 0 37 0;
#X connect 20 0 36 0;
#X connect 21 0 9 0;
#X connect 21 0 26 0;
#X connect 22 0 39 0;
#X connect 23 0 21 0;
#X connect 26 0 27 0;
#X connect 26 0 28 0;
#X connect 26 0 29 0;
#X connect 26 0 30 0;
#X connect 32 0 35 0;
#X connect 33 0 32 1;
#X connect 34 0 33 0;
#X connect 35 0 38 0;
#X connect 36 0 24 0;
#X connect 37 0 25 0;
#X connect 38 0 31 0;
#X connect 39 0 5 1;
#X restore 219 151 pd page;
#X obj 219 172 s page;
#X obj 100 43 cnv 15 200 20 empty page empty 20 12 0 14 -233017 -66577
0;
#X obj 92 92 hsl 32 15 0 1 0 0 empty empty empty -2 -8 0 10 -228856
-1 -1 2506 1;
#X obj 202 90 hsl 32 15 0 1 0 0 empty empty empty -2 -8 0 10 -228856
-1 -1 1257 1;
#X obj 257 90 hsl 32 15 0 1 0 0 empty empty empty -2 -8 0 10 -228856
-1 -1 1550 1;
#X obj 144 91 hsl 32 15 0 1 0 0 empty empty empty -2 -8 0 10 -228856
-1 -1 2746 1;
#X obj 191 108 cnv 15 50 16 empty p3Desc empty 4 8 0 8 -233017 -66577
0;
#X obj 82 109 cnv 15 50 16 empty p1Desc empty 4 8 0 8 -233017 -66577
0;
#X obj 248 107 cnv 15 50 16 empty p4Desc empty 4 8 0 8 -233017 -66577
0;
#X obj 137 108 cnv 15 50 16 empty p2Desc empty 4 8 0 8 -233017 -66577
0;
#X obj 100 23 cnv 15 200 20 empty module empty 20 12 0 14 -233017 -66577
0;
#N canvas 547 54 1345 997 connect 0;
#X obj 28 451 tgl 15 0 empty empty empty 17 7 0 10 -262144 -1 -1 1
1;
#X obj 388 398 unpackOSC;
#X obj 17 283 packOSC;
#X text 140 463 stuff going out (from patch)...;
#X text 52 450 connected to mother background program;
#X obj 17 323 list prepend send;
#X obj 27 385 list trim;
#X obj 27 426 netsend -u -b;
#X obj 406 375 netreceive -u -b;
#X msg 428 333 listen \$1;
#X msg 304 339 send /Connect \$1;
#X obj 157 242 symbol;
#X obj 217 392 print SEND:;
#X obj 559 385 print LISTEN:;
#X obj 347 273 int;
#X obj 279 263 int;
#X msg 210 316 disconnect;
#X obj 160 181 t b b b b b s;
#X msg 514 334 listen 0;
#X msg 164 291 connect \$1 6100;
#X obj 51 5 loadbang;
#X obj 234 98 t b b;
#X obj 272 64 bng 15 250 50 0 empty empty empty 17 7 0 10 -262144 -1
-1;
#X obj 288 178 int 6101;
#X obj 160 153 symbol;
#X msg 182 123 localhost;
#X obj 315 424 s knobs-oscIn;
#X obj 297 373 s knobs-oscOut;
#X obj 17 240 r knobs-oscOut;
#X obj 38 114 comport;
#X obj 38 134 print;
#X msg 38 87 devices;
#X obj 433 272 comport 32 115200;
#X msg 366 174 open 32;
#X obj 322 62 r serialOscOut;
#X obj 284 5 inlet;
#X obj 424 176 slipenc;
#X obj 614 43 inlet;
#X msg 507 235 close;
#X obj 446 135 packOSC;
#X obj 354 102 print Serial;
#X msg 459 107 /tick \$1;
#X obj 611 196 s module;
#X obj 603 223 s page;
#X obj 604 243 s p1Desc;
#X obj 603 262 s p2Desc;
#X obj 603 282 s p3Desc;
#X obj 603 302 s p4Desc;
#X obj 467 198 tgl 15 0 empty empty empty 17 7 0 10 -262144 -1 -1 0
1;
#X obj 422 219 spigot 0;
#X floatatom 489 178 5 0 0 0 - - -, f 5;
#X msg 593 172 label;
#X obj 383 138 f 1;
#X obj 524 114 t a b;
#X msg 539 94 /bye;
#X obj 533 142 pipe 30;
#N canvas 205 183 829 754 shake 0;
#X obj 39 9 inlet;
#X obj 38 39 slipdec;
#X obj 39 68 unpackOSC;
#X obj 23 131 print;
#X obj 263 253 noise~;
#X obj 257 347 dac~;
#X obj 247 283 *~;
#X obj 327 295 tgl 15 0 empty empty empty 17 7 0 10 -262144 -1 -1 0
1;
#X obj 267 313 *~;
#X obj 104 130 unpack;
#X obj 58 100 routeOSC /shake;
#X obj 159 246 f 0;
#X obj 23 245 bng 15 250 50 0 empty empty empty 17 7 0 10 -262144 -1
-1;
#X obj 205 227 *;
#X obj 156 279 bng 15 250 50 0 empty empty empty 17 7 0 10 -262144
-1 -1;
#X obj 78 162 t b b;
#X obj 214 200 *;
#X obj 161 156 / 1000;
#X obj 320 227 s notesIn-c1;
#X msg 312 190 37 \$1 0;
#X obj 299 153 * 127;
#X floatatom 272 201 5 0 0 0 - - -, f 5;
#X obj 198 178 t f f;
#X obj 153 186 f 4;
#X obj 41 209 delay 20 1 msec;
#X connect 0 0 1 0;
#X connect 1 0 2 0;
#X connect 2 0 3 0;
#X connect 2 0 10 0;
#X connect 4 0 6 0;
#X connect 6 0 8 0;
#X connect 7 0 8 1;
#X connect 8 0 5 0;
#X connect 9 0 15 0;
#X connect 9 0 17 0;
#X connect 10 0 9 0;
#X connect 11 0 13 0;
#X connect 11 0 14 0;
#X connect 13 0 6 1;
#X connect 15 0 23 0;
#X connect 15 1 24 0;
#X connect 16 0 13 1;
#X connect 16 0 21 0;
#X connect 17 0 22 0;
#X connect 19 0 18 0;
#X connect 20 0 21 0;
#X connect 20 0 19 0;
#X connect 22 0 16 0;
#X connect 22 1 16 1;
#X connect 23 0 13 0;
#X connect 24 0 11 0;
#X connect 24 0 12 0;
#X restore 527 306 pd shake;
#X obj 108 114 midiout;
#X msg 122 85 250;
#X obj 147 13 delay 3 1 sec;
#X obj 404 424 routeOSC /connect;
#X obj 336 6 r connect;
#X obj 599 68 bng 15 250 50 0 empty empty empty 17 7 0 10 -262144 -1
-1;
#X obj 421 448 sel 1;
#X obj 375 470 s connect;
#X obj 458 469 s disconnect;
#X obj 575 12 r disconnect;
#N canvas 0 54 1332 860 beat 0;
#X obj 28 18 r master-ticks;
#X obj 57 67 f;
#X obj 96 66 + 1;
#X obj 57 41 sel 0;
#X obj 56 91 % 128;
#X obj 71 124 outlet;
#X obj 33 150 s beat;
#X connect 0 0 3 0;
#X connect 1 0 2 0;
#X connect 1 0 4 0;
#X connect 2 0 1 1;
#X connect 3 0 1 0;
#X connect 4 0 5 0;
#X connect 4 0 6 0;
#X restore 494 69 pd beat;
#X obj 434 154 t a;
#X msg 423 36 selectmodule 0;
#X obj 421 64 s rackMsgs;
#X obj 297 33 delay 1 1 sec;
#X obj 444 9 delay 1 1 sec;
#X connect 1 0 26 0;
#X connect 1 0 60 0;
#X connect 2 0 5 0;
#X connect 5 0 6 0;
#X connect 6 0 7 0;
#X connect 7 0 0 0;
#X connect 8 0 1 0;
#X connect 9 0 8 0;
#X connect 9 0 13 0;
#X connect 10 0 27 0;
#X connect 11 0 19 0;
#X connect 14 0 9 0;
#X connect 15 0 10 0;
#X connect 16 0 7 0;
#X connect 17 0 15 0;
#X connect 17 1 11 0;
#X connect 17 2 16 0;
#X connect 17 3 14 0;
#X connect 17 4 18 0;
#X connect 17 5 11 1;
#X connect 18 0 8 0;
#X connect 19 0 7 0;
#X connect 19 0 12 0;
#X connect 20 0 59 0;
#X connect 21 0 25 0;
#X connect 21 1 23 0;
#X connect 22 0 21 0;
#X connect 22 0 33 0;
#X connect 22 0 52 0;
#X connect 22 0 58 0;
#X connect 22 0 72 0;
#X connect 23 0 15 1;
#X connect 23 0 14 1;
#X connect 24 0 17 0;
#X connect 25 0 24 0;
#X connect 28 0 2 0;
#X connect 29 0 30 0;
#X connect 31 0 29 0;
#X connect 32 0 56 0;
#X connect 33 0 32 0;
#X connect 34 0 39 0;
#X connect 34 0 40 0;
#X connect 35 0 22 0;
#X connect 36 0 49 0;
#X connect 37 0 62 0;
#X connect 38 0 32 0;
#X connect 39 0 68 0;
#X connect 41 0 39 0;
#X connect 48 0 49 1;
#X connect 49 0 32 0;
#X connect 50 0 48 0;
#X connect 51 0 42 0;
#X connect 51 0 43 0;
#X connect 51 0 44 0;
#X connect 51 0 45 0;
#X connect 51 0 46 0;
#X connect 51 0 47 0;
#X connect 52 0 48 0;
#X connect 53 0 39 0;
#X connect 53 1 55 0;
#X connect 54 0 53 0;
#X connect 55 0 50 0;
#X connect 55 0 38 0;
#X connect 58 0 57 0;
#X connect 59 0 22 0;
#X connect 60 0 63 0;
#X connect 61 0 71 0;
#X connect 62 0 51 0;
#X connect 62 0 54 0;
#X connect 63 0 64 0;
#X connect 63 1 65 0;
#X connect 66 0 62 0;
#X connect 67 0 41 0;
#X connect 68 0 36 0;
#X connect 69 0 70 0;
#X connect 71 0 22 0;
#X connect 72 0 69 0;
#X restore 73 171 pd connect;
#X obj 73 151 bng 15 250 50 0 empty empty empty 17 7 0 10 -262144 -1
-1;
#X obj 72 192 declare -path externals;
#X obj 123 151 bng 15 250 50 0 empty empty empty 17 7 0 10 -262144
-1 -1;
#X obj 89 71 knob 1;
#N canvas 447 75 1305 972 nav 0;
#X obj 304 3 ctlin;
#X floatatom 311 224 5 0 0 0 - - -, f 5;
#X obj 324 200 -;
#X obj 321 133 moses 63;
#X obj 374 155 t b;
#X obj 321 102 f;
#X obj 354 182 f 128;
#X obj 277 255 +;
#X obj 171 242 f 0;
#X floatatom 171 267 5 0 0 0 - - -, f 5;
#X obj 208 220 clip -10 10;
#X obj 172 289 sel -10 10;
#X obj 243 338 bng 15 250 50 0 empty empty empty 17 7 0 10 -262144
-1 -1;
#X obj 270 300 f 0;
#X obj 131 381 s knobs-oscOut;
#X obj 13 381 s knobs-oscOut;
#X obj 421 424 s serialOscOut;
#X obj 131 356 debounce 100;
#X obj 13 357 debounce 100;
#X msg 13 332 send /NavPrev 1;
#X msg 131 335 send /NavNext 1;
#X obj 163 191 s knobs-oscOut;
#X msg 194 154 send /NavActivate 1;
#X msg 401 362 send /nav;
#X obj 374 41 bng 15 250 50 0 empty empty empty 17 7 0 10 -262144 -1
-1;
#X obj 222 132 bng 15 250 50 0 empty empty empty 17 7 0 10 -262144
-1 -1;
#X obj 278 26 pack;
#X obj 254 49 route 0;
#X obj 250 72 unpack;
#N canvas 65 151 1716 677 route 0;
#X obj 629 10 r knobs-oscIn;
#X obj 663 304 s serialOscOut;
#X obj 539 32 routeOSC /text /selectText /clearText;
#X msg 660 114 send /selectText \$1;
#X msg 756 143 send /clearText;
#X obj 653 75 change;
#X msg 79 195 send /text 1 \$1;
#X msg 206 195 send /text 2 \$1;
#X msg 328 196 send /text 3 \$1;
#X msg 445 197 send /text 4 \$1;
#X obj 121 163 symbol;
#X obj 353 162 symbol;
#X obj 272 163 symbol;
#X obj 188 161 symbol;
#X obj 460 163 symbol;
#X msg 554 196 send /text 5 \$1;
#X obj 157 93 route 1 2 3 4 5;
#X obj 457 136 debounce 40;
#X obj 350 135 debounce 40;
#X obj 270 135 debounce 40;
#X obj 182 135 debounce 40;
#X obj 98 136 debounce 40;
#X connect 0 0 2 0;
#X connect 2 0 16 0;
#X connect 2 1 5 0;
#X connect 2 2 4 0;
#X connect 3 0 1 0;
#X connect 4 0 1 0;
#X connect 5 0 3 0;
#X connect 6 0 1 0;
#X connect 7 0 1 0;
#X connect 8 0 1 0;
#X connect 9 0 1 0;
#X connect 10 0 6 0;
#X connect 11 0 9 0;
#X connect 12 0 8 0;
#X connect 13 0 7 0;
#X connect 14 0 15 0;
#X connect 15 0 1 0;
#X connect 16 0 21 0;
#X connect 16 1 20 0;
#X connect 16 2 19 0;
#X connect 16 3 18 0;
#X connect 16 4 17 0;
#X connect 17 0 14 0;
#X connect 18 0 11 0;
#X connect 19 0 12 0;
#X connect 20 0 13 0;
#X connect 21 0 10 0;
#X restore 466 74 pd route;
#X obj 412 390 debounce 200;
#X obj 270 414 tgl 15 0 empty empty empty 17 7 0 10 -262144 -1 -1 0
1;
#X obj 256 362 delay 3 1 sec;
#X obj 293 389 t 0;
#X obj 248 388 f 1;
#X obj 288 435 s disablectl-23;
#X obj 349 74 sel 61;
#X obj 238 96 sel 23;
#X obj 251 117 spigot;
#X obj 385 250 ctlin 20;
#X obj 450 250 ctlin 21;
#X obj 513 250 ctlin 22;
#X connect 0 0 5 1;
#X connect 0 0 26 0;
#X connect 0 1 24 0;
#X connect 0 1 26 1;
#X connect 0 1 36 0;
#X connect 1 0 7 0;
#X connect 2 0 1 0;
#X connect 3 0 1 0;
#X connect 3 1 2 0;
#X connect 3 1 4 0;
#X connect 4 0 6 0;
#X connect 5 0 3 0;
#X connect 6 0 2 1;
#X connect 7 0 10 0;
#X connect 8 0 7 1;
#X connect 8 0 9 0;
#X connect 9 0 11 0;
#X connect 10 0 8 0;
#X connect 11 0 12 0;
#X connect 11 0 19 0;
#X connect 11 1 20 0;
#X connect 11 1 12 0;
#X connect 12 0 13 0;
#X connect 12 0 23 0;
#X connect 12 0 32 0;
#X connect 12 0 34 0;
#X connect 13 0 8 0;
#X connect 17 0 14 0;
#X connect 18 0 15 0;
#X connect 19 0 18 0;
#X connect 20 0 17 0;
#X connect 22 0 21 0;
#X connect 23 0 30 0;
#X connect 25 0 22 0;
#X connect 25 0 23 0;
#X connect 26 0 27 0;
#X connect 27 1 28 0;
#X connect 28 1 37 0;
#X connect 30 0 16 0;
#X connect 31 0 35 0;
#X connect 31 0 38 1;
#X connect 32 0 33 0;
#X connect 33 0 31 0;
#X connect 34 0 31 0;
#X connect 36 0 5 0;
#X connect 37 0 38 0;
#X connect 38 0 25 0;
#X connect 39 0 33 0;
#X connect 40 0 33 0;
#X connect 41 0 33 0;
#X restore 271 151 pd nav;
#X obj 142 71 knob 2;
#X obj 199 70 knob 3;
#X obj 254 70 knob 4;
#N canvas 137 54 922 604 audioIO 0;
#X obj 513 376 dac~;
#X obj 192 166 adc~, f 6;
#X obj 482 219 clip~ -1 1;
#X obj 571 219 clip~ -1 1;
#X obj 483 273 *~ 1;
#X obj 572 275 *~ 1;
#X text 137 376 removed : tb_peakcomp~ -3 8 10 100 0;
#X obj 481 128 catch~ ooutL;
#X obj 634 134 catch~ ooutR;
#X obj 285 244 s~ oinR;
#X obj 110 244 s~ oinL;
#X obj 69 38 loadbang;
#X msg 70 106 \; pd dsp 1, f 10;
#X obj 70 77 delay 200;
#X connect 1 0 10 0;
#X connect 1 1 9 0;
#X connect 2 0 4 0;
#X connect 3 0 5 0;
#X connect 4 0 0 0;
#X connect 5 0 0 1;
#X connect 7 0 2 0;
#X connect 8 0 3 0;
#X connect 11 0 13 0;
#X connect 13 0 12 0;
#X restore 270 172 pd audioIO;
#N canvas 228 80 1308 956 tracks 0;
#X obj 280 442 s rackMsgs;
#X obj 20 19 ctlin 20;
#X obj 85 19 ctlin 21;
#X obj 148 19 ctlin 22;
#X obj 37 104 tgl 15 0 empty empty empty 17 7 0 10 -262144 -1 -1 0
1;
#X obj 11 198 s selecting;
#X obj 105 106 tgl 15 0 empty empty empty 17 7 0 10 -262144 -1 -1 0
1;
#X obj 181 107 tgl 15 0 empty empty empty 17 7 0 10 -262144 -1 -1 0
1;
#X obj 267 109 tgl 15 0 empty empty empty 17 7 0 10 -262144 -1 -1 0
1;
#X obj 345 109 tgl 15 0 empty empty empty 17 7 0 10 -262144 -1 -1 0
1;
#X obj 398 79 sel 0;
#X obj 412 105 bng 15 250 50 0 empty empty empty 17 7 0 10 -262144
-1 -1;
#X obj 398 56 ctlin 16;
#X obj 463 56 ctlin 17;
#X obj 526 56 ctlin 18;
#X obj 589 56 ctlin 19;
#X obj 464 80 sel 0;
#X obj 478 105 bng 15 250 50 0 empty empty empty 17 7 0 10 -262144
-1 -1;
#X obj 525 80 sel 0;
#X obj 539 106 bng 15 250 50 0 empty empty empty 17 7 0 10 -262144
-1 -1;
#X obj 587 80 sel 0;
#X obj 601 105 bng 15 250 50 0 empty empty empty 17 7 0 10 -262144
-1 -1;
#X obj 408 132 f 0;
#X obj 471 131 f 1;
#X obj 535 131 f 2;
#X obj 591 131 f 3;
#X obj 151 236 spigot;
#X floatatom 444 196 5 0 0 0 - - -, f 5;
#X floatatom 236 266 5 0 0 0 - - -, f 5;
#X floatatom 327 266 5 0 0 0 - - -, f 5;
#X floatatom 416 267 5 0 0 0 - - -, f 5;
#X obj 233 235 spigot;
#X obj 322 235 spigot;
#X obj 410 235 spigot;
#X floatatom 151 267 5 0 0 0 - - -, f 5;
#X obj 128 291 +;
#X obj 115 196 f 0;
#X obj 84 147 sel 0;
#X obj 90 170 t b;
#X obj 217 291 +;
#X obj 313 293 +;
#X obj 398 293 +;
#X obj 161 146 sel 0;
#X obj 167 170 t b;
#X obj 237 148 sel 0;
#X obj 243 171 t b;
#X obj 328 143 sel 0;
#X obj 328 168 t b;
#X obj 218 319 change;
#X floatatom 204 393 5 0 0 0 - - -, f 5;
#X msg 205 414 selectmodule \$1;
#X obj 201 197 f 4;
#X obj 282 194 f 8;
#X obj 366 194 f 12;
#X obj 275 380 s serialOscOut;
#X msg 278 351 send /track \$1;
#X obj 231 365 - 1;
#X obj 181 343 moses 3;
#X obj 211 19 ctlin 23;
#X obj 258 43 spigot 1;
#X obj 384 10 r disablectl-23;
#X obj 317 20 == 0;
#X connect 1 0 4 0;
#X connect 1 0 6 0;
#X connect 2 0 4 0;
#X connect 2 0 7 0;
#X connect 3 0 4 0;
#X connect 3 0 8 0;
#X connect 4 0 5 0;
#X connect 6 0 26 1;
#X connect 6 0 37 0;
#X connect 7 0 31 1;
#X connect 7 0 42 0;
#X connect 8 0 32 1;
#X connect 8 0 44 0;
#X connect 9 0 33 1;
#X connect 9 0 46 0;
#X connect 10 1 11 0;
#X connect 11 0 22 0;
#X connect 12 0 10 0;
#X connect 13 0 16 0;
#X connect 14 0 18 0;
#X connect 15 0 20 0;
#X connect 16 1 17 0;
#X connect 17 0 23 0;
#X connect 18 1 19 0;
#X connect 19 0 24 0;
#X connect 20 1 21 0;
#X connect 21 0 25 0;
#X connect 22 0 27 0;
#X connect 23 0 27 0;
#X connect 24 0 27 0;
#X connect 25 0 27 0;
#X connect 26 0 34 0;
#X connect 27 0 26 0;
#X connect 27 0 31 0;
#X connect 27 0 32 0;
#X connect 27 0 33 0;
#X connect 28 0 39 0;
#X connect 29 0 40 0;
#X connect 30 0 41 0;
#X connect 31 0 28 0;
#X connect 32 0 29 0;
#X connect 33 0 30 0;
#X connect 34 0 35 0;
#X connect 35 0 48 0;
#X connect 36 0 35 1;
#X connect 37 1 38 0;
#X connect 38 0 36 0;
#X connect 38 0 34 0;
#X connect 39 0 48 0;
#X connect 40 0 48 0;
#X connect 41 0 48 0;
#X connect 42 1 43 0;
#X connect 43 0 28 0;
#X connect 43 0 51 0;
#X connect 44 1 45 0;
#X connect 45 0 29 0;
#X connect 45 0 52 0;
#X connect 46 1 47 0;
#X connect 47 0 30 0;
#X connect 47 0 53 0;
#X connect 48 0 55 0;
#X connect 48 0 57 0;
#X connect 49 0 50 0;
#X connect 50 0 0 0;
#X connect 51 0 39 1;
#X connect 52 0 40 1;
#X connect 53 0 41 1;
#X connect 55 0 54 0;
#X connect 56 0 49 0;
#X connect 57 0 49 0;
#X connect 57 1 56 0;
#X connect 58 0 59 0;
#X connect 59 0 4 0;
#X connect 59 0 9 0;
#X connect 60 0 61 0;
#X connect 61 0 59 1;
#X restore 219 192 pd tracks;
#X connect 0 0 1 0;
#X connect 2 0 3 0;
#X connect 15 0 14 0;
#X connect 17 0 14 1;
#X connect 18 0 5 0;
#X connect 20 0 8 0;
#X connect 21 0 6 0;
#X connect 22 0 7 0;
