#N canvas 0 54 960 998 10;
#X declare -path externals;
#N canvas 2880 54 960 1026 connect 0;
#X obj 52 614 tgl 15 0 empty empty empty 17 7 0 10 -262144 -1 -1 1
1;
#X obj 522 547 unpackOSC;
#X obj 54 474 packOSC;
#X text 165 628 stuff going out (from patch)...;
#X text 77 615 connected to mother background program;
#X obj 130 531 list prepend send;
#X obj 52 550 list trim;
#X obj 52 591 netsend -u -b;
#X obj 522 523 netreceive -u -b;
#X msg 525 477 listen \$1;
#X msg 401 483 send /Connect \$1;
#X obj 196 406 symbol;
#X obj 256 556 print SEND:;
#X obj 656 529 print LISTEN:;
#X obj 466 407 int;
#X obj 396 410 int;
#X msg 229 480 disconnect;
#X obj 257 325 t b b b b b s;
#X msg 611 478 listen 0;
#X msg 203 455 connect \$1 6100;
#X obj 264 68 loadbang;
#X obj 264 149 t b b;
#X obj 264 111 bng 15 250 50 0 empty empty empty 17 7 0 10 -262144
-1 -1;
#X obj 376 277 int 6101;
#X obj 252 200 cnv 15 425 40 empty empty empty 20 12 0 14 -204800 -66577
0;
#X text 264 215 edit hostname here->;
#X obj 262 277 symbol;
#X msg 528 215 localhost;
#X obj 498 594 s knobs-oscIn;
#X obj 54 446 r knobs-oscOut;
#X obj 394 517 s knobs-oscOut;
#X connect 1 0 28 0;
#X connect 2 0 5 0;
#X connect 5 0 6 0;
#X connect 6 0 7 0;
#X connect 7 0 0 0;
#X connect 8 0 1 0;
#X connect 9 0 8 0;
#X connect 9 0 13 0;
#X connect 10 0 30 0;
#X connect 11 0 19 0;
#X connect 14 0 9 0;
#X connect 15 0 10 0;
#X connect 16 0 7 0;
#X connect 17 0 15 0;
#X connect 17 1 11 0;
#X connect 17 2 16 0;
#X connect 17 3 14 0;
#X connect 17 4 18 0;
#X connect 17 5 11 1;
#X connect 18 0 8 0;
#X connect 19 0 7 0;
#X connect 19 0 12 0;
#X connect 20 0 22 0;
#X connect 21 0 27 0;
#X connect 21 1 23 0;
#X connect 22 0 21 0;
#X connect 23 0 15 1;
#X connect 23 0 14 1;
#X connect 26 0 17 0;
#X connect 27 0 26 0;
#X connect 29 0 2 0;
#X restore 29 200 pd connect;
#X obj 29 219 declare -path externals;
#X obj 89 73 knob 1;
#N canvas 958 54 960 997 module 0;
#X obj 171 21 ctlin;
#X floatatom 171 281 5 0 0 0 - - -, f 5;
#X obj 187 238 -;
#X obj 184 171 moses 63;
#X obj 237 193 t b;
#X obj 216 114 sel;
#X obj 188 141 f;
#X floatatom 292 88 5 0 0 0 - - -, f 5;
#X obj 217 220 f 128;
#X msg 42 416 send /ModulePrev 1;
#X msg 181 416 send /ModuleNext 1;
#X obj 233 88 f 72;
#X obj 251 44 loadbang;
#X obj 326 355 symbol;
#X obj 326 330 routeOSC /module;
#X msg 324 378 label \$1;
#X obj 137 312 +;
#X obj 31 299 f 0;
#X floatatom 31 324 5 0 0 0 - - -, f 5;
#X obj 68 277 clip -10 10;
#X obj 32 346 sel -10 10;
#X obj 80 384 bng 15 250 50 0 empty empty empty 17 7 0 10 -262144 -1
-1;
#X obj 130 357 f 0;
#X obj 323 408 outlet;
#X obj 326 300 r knobs-oscIn;
#X obj 181 438 s knobs-oscOut;
#X obj 42 443 s knobs-oscOut;
#X connect 0 0 6 1;
#X connect 0 1 5 0;
#X connect 1 0 16 0;
#X connect 2 0 1 0;
#X connect 3 0 1 0;
#X connect 3 1 2 0;
#X connect 3 1 4 0;
#X connect 4 0 8 0;
#X connect 5 0 6 0;
#X connect 6 0 3 0;
#X connect 8 0 2 1;
#X connect 9 0 26 0;
#X connect 10 0 25 0;
#X connect 11 0 5 1;
#X connect 12 0 7 0;
#X connect 12 0 11 0;
#X connect 13 0 15 0;
#X connect 14 0 13 0;
#X connect 15 0 23 0;
#X connect 16 0 19 0;
#X connect 17 0 16 1;
#X connect 17 0 18 0;
#X connect 18 0 20 0;
#X connect 19 0 17 0;
#X connect 20 0 9 0;
#X connect 20 0 21 0;
#X connect 20 1 10 0;
#X connect 20 1 21 0;
#X connect 21 0 22 0;
#X connect 22 0 17 0;
#X connect 24 0 14 0;
#X restore 28 155 pd module;
#X obj 28 175 s module;
#N canvas 954 54 960 997 page 0;
#X obj 184 16 ctlin;
#X floatatom 184 276 5 0 0 0 - - -, f 5;
#X obj 200 233 -;
#X obj 197 166 moses 63;
#X obj 250 188 t b;
#X obj 229 109 sel;
#X obj 201 136 f;
#X obj 230 215 f 128;
#X obj 264 39 loadbang;
#X obj 278 262 symbol;
#X msg 276 285 label \$1;
#X obj 150 307 +;
#X obj 44 294 f 0;
#X floatatom 44 319 5 0 0 0 - - -, f 5;
#X obj 81 272 clip -10 10;
#X obj 45 341 sel -10 10;
#X obj 93 379 bng 15 250 50 0 empty empty empty 17 7 0 10 -262144 -1
-1;
#X obj 143 352 f 0;
#X obj 275 315 outlet;
#X obj 246 83 f 73;
#X msg 55 411 send /PagePrev 1;
#X msg 194 409 send /PageNext 1;
#X obj 305 188 routeOSC /page;
#X obj 239 42 bng 15 250 50 0 empty empty empty 17 7 0 10 -262144 -1
-1;
#X obj 305 159 r knobs-oscIn;
#X obj 194 433 s knobs-oscOut;
#X obj 55 438 s knobs-oscOut;
#X msg 327 216 label;
#X obj 366 313 s p4Desc;
#X obj 366 242 s p1Desc;
#X obj 366 266 s p2Desc;
#X obj 366 288 s p3Desc;
#X connect 0 0 6 1;
#X connect 0 1 5 0;
#X connect 1 0 11 0;
#X connect 2 0 1 0;
#X connect 3 0 1 0;
#X connect 3 1 2 0;
#X connect 3 1 4 0;
#X connect 4 0 7 0;
#X connect 5 0 6 0;
#X connect 6 0 3 0;
#X connect 7 0 2 1;
#X connect 8 0 19 0;
#X connect 9 0 10 0;
#X connect 10 0 18 0;
#X connect 11 0 14 0;
#X connect 12 0 11 1;
#X connect 12 0 13 0;
#X connect 13 0 15 0;
#X connect 14 0 12 0;
#X connect 15 0 20 0;
#X connect 15 0 16 0;
#X connect 15 1 21 0;
#X connect 15 1 16 0;
#X connect 16 0 17 0;
#X connect 17 0 12 0;
#X connect 19 0 5 1;
#X connect 20 0 26 0;
#X connect 21 0 25 0;
#X connect 22 0 9 0;
#X connect 22 0 27 0;
#X connect 23 0 19 0;
#X connect 24 0 22 0;
#X connect 27 0 28 0;
#X connect 27 0 29 0;
#X connect 27 0 30 0;
#X connect 27 0 31 0;
#X restore 95 155 pd page;
#X obj 95 176 s page;
#X obj 100 45 cnv 15 180 20 empty page Module A1 20 12 0 14 -233017
-66577 0;
#X obj 100 24 cnv 15 180 20 empty module s1 : Parallel 20 12 0 14 -233017
-66577 0;
#X obj 92 93 hsl 32 15 0 1 0 0 empty empty empty -2 -8 0 10 -228856
-1 -1 0 1;
#X obj 202 91 hsl 32 15 0 1 0 0 empty empty empty -2 -8 0 10 -228856
-1 -1 1550 1;
#X obj 257 91 hsl 32 15 0 1 0 0 empty empty empty -2 -8 0 10 -228856
-1 -1 0 1;
#X obj 144 92 hsl 32 15 0 1 0 0 empty empty empty -2 -8 0 10 -228856
-1 -1 1550 1;
#X obj 191 109 cnv 15 50 12 empty p3Desc Thru Gain 2 6 0 8 -233017
-66577 0;
#X obj 82 110 cnv 15 50 12 empty p1Desc Bypass 2 6 0 8 -233017 -66577
0;
#X obj 248 108 cnv 15 50 12 empty p4Desc Note Thru 2 6 0 8 -233017
-66577 0;
#X obj 137 109 cnv 15 50 12 empty p2Desc Gain 2 6 0 8 -233017 -66577
0;
#X obj 142 72 knob 2;
#X obj 199 71 knob 3;
#X obj 254 71 knob 4;
#X connect 2 0 9 0;
#X connect 3 0 4 0;
#X connect 5 0 6 0;
#X connect 17 0 12 0;
#X connect 18 0 10 0;
#X connect 19 0 11 0;
