#N canvas 627 129 744 630 10;
#X obj 38 200 t a b b;
#X obj 38 169 spigot 1;
#X msg 108 169 0;
#X msg 83 149 1;
#X obj 81 81 inlet;
#X obj 66 238 outlet;
#X obj 131 81 inlet;
#X obj 82 125 delay \$1;
#X connect 0 0 5 0;
#X connect 0 1 7 0;
#X connect 0 2 2 0;
#X connect 1 0 0 0;
#X connect 2 0 1 1;
#X connect 3 0 1 1;
#X connect 4 0 1 0;
#X connect 6 0 7 1;
#X connect 7 0 3 0;
