#N canvas 221 601 1238 962 10;
#X obj 397 6 ctlin;
#X floatatom 403 231 5 0 0 0 - - -, f 5;
#X obj 416 203 -;
#X obj 422 134 moses 63;
#X obj 466 158 t b;
#X obj 442 84 sel;
#X obj 276 203 * 127;
#X obj 366 257 +;
#X obj 414 111 f;
#X obj 310 237 f;
#X obj 327 210 clip 0 127;
#X obj 310 262 / 127;
#X floatatom 326 299 5 0 0 0 - - -, f 5;
#X obj 262 113 routeOSC /P\$1Ctrl;
#X obj 477 29 f \$1;
#X floatatom 513 60 5 0 0 0 - - -, f 5;
#X obj 446 185 f 128;
#X obj 283 348 outlet;
#X obj 186 24 r knobs-oscIn;
#X obj 504 395 s knobs-oscOut;
#X obj 149 189 routeOSC /P\$1Desc;
#X msg 99 258 label \$1;
#X obj 99 282 s p\$1Desc;
#X obj 253 457 s serialOscOut;
#X obj 190 288 pack s f;
#X msg 189 313 send /P\$2Desc \$1;
#X obj 486 313 f \$1;
#X obj 397 284 t b;
#X obj 211 264 f \$1;
#X obj 190 237 t b;
#X obj 477 241 routeOSC /P\$1Value;
#X obj 42 98 s init-knob-\$1;
#X obj 66 67 loadbang;
#X obj 473 7 r init-knob-\$1;
#X obj 37 68 bng 15 250 50 0 empty empty empty 17 7 0 10 -262144 -1
-1;
#X obj 142 214 symbol;
#X msg 318 411 send /control \$2 \$1 \$3;
#X obj 505 338 pack f f;
#X msg 505 371 send /P\$2Ctrl \$1;
#X obj 369 387 pack f f s;
#X obj 470 271 symbol;
#X obj 479 215 r knobs-oscIn;
#X obj 363 359 f;
#X obj 404 358 f;
#X obj 383 331 t b b;
#X obj 283 434 debounce 30;
#X obj 194 381 debounce 100;
#X obj 459 59 + 63;
#X obj 46 32 r loadbang-\$2;
#X msg 577 303 label \$1;
#X obj 577 327 s p\$1Value;
#X connect 0 0 8 1;
#X connect 0 1 5 0;
#X connect 1 0 7 0;
#X connect 2 0 1 0;
#X connect 3 0 1 0;
#X connect 3 1 2 0;
#X connect 3 1 4 0;
#X connect 4 0 16 0;
#X connect 5 0 8 0;
#X connect 6 0 9 0;
#X connect 7 0 10 0;
#X connect 8 0 3 0;
#X connect 8 0 44 0;
#X connect 9 0 7 1;
#X connect 9 0 11 0;
#X connect 10 0 9 0;
#X connect 11 0 12 0;
#X connect 11 0 27 0;
#X connect 12 0 17 0;
#X connect 12 0 37 0;
#X connect 12 0 42 1;
#X connect 13 0 6 0;
#X connect 14 0 15 0;
#X connect 14 0 47 0;
#X connect 16 0 2 1;
#X connect 18 0 13 0;
#X connect 18 0 20 0;
#X connect 20 0 35 0;
#X connect 21 0 22 0;
#X connect 24 0 25 0;
#X connect 25 0 46 0;
#X connect 26 0 37 1;
#X connect 26 0 43 1;
#X connect 27 0 26 0;
#X connect 28 0 24 1;
#X connect 29 0 28 0;
#X connect 30 0 40 0;
#X connect 32 0 31 0;
#X connect 33 0 14 0;
#X connect 34 0 31 0;
#X connect 35 0 21 0;
#X connect 35 0 29 0;
#X connect 35 0 24 0;
#X connect 36 0 45 0;
#X connect 37 0 38 0;
#X connect 38 0 19 0;
#X connect 39 0 36 0;
#X connect 40 0 39 2;
#X connect 40 0 44 0;
#X connect 40 0 49 0;
#X connect 41 0 30 0;
#X connect 42 0 39 0;
#X connect 43 0 39 1;
#X connect 44 0 42 0;
#X connect 44 1 43 0;
#X connect 45 0 23 0;
#X connect 46 0 23 0;
#X connect 47 0 5 1;
#X connect 48 0 31 0;
#X connect 49 0 50 0;
