#N canvas 1182 147 547 457 10;
#X declare -path externals;
#N canvas 947 54 960 997 module 0;
#X obj 171 21 ctlin;
#X floatatom 171 281 5 0 0 0 - - -, f 5;
#X obj 187 238 -;
#X obj 184 171 moses 63;
#X obj 237 193 t b;
#X obj 188 141 f;
#X obj 217 220 f 128;
#X msg 42 416 send /ModulePrev 1;
#X msg 181 416 send /ModuleNext 1;
#X obj 312 270 symbol;
#X obj 312 245 routeOSC /module;
#X msg 348 309 label \$1;
#X obj 137 312 +;
#X obj 31 299 f 0;
#X floatatom 31 324 5 0 0 0 - - -, f 5;
#X obj 68 277 clip -10 10;
#X obj 32 346 sel -10 10;
#X obj 80 384 bng 15 250 50 0 empty empty empty 17 7 0 10 -262144 -1
-1;
#X obj 130 357 f 0;
#X obj 347 339 outlet;
#X obj 312 214 r knobs-oscIn;
#X obj 180 462 s knobs-oscOut;
#X obj 41 462 s knobs-oscOut;
#X obj 243 310 s moduleSel;
#X obj 40 438 debounce 100;
#X obj 180 437 debounce 100;
#X obj 216 114 sel 62;
#X connect 0 0 5 1;
#X connect 0 1 26 0;
#X connect 1 0 12 0;
#X connect 2 0 1 0;
#X connect 3 0 1 0;
#X connect 3 1 2 0;
#X connect 3 1 4 0;
#X connect 4 0 6 0;
#X connect 5 0 3 0;
#X connect 6 0 2 1;
#X connect 7 0 24 0;
#X connect 8 0 25 0;
#X connect 9 0 11 0;
#X connect 9 0 23 0;
#X connect 10 0 9 0;
#X connect 11 0 19 0;
#X connect 12 0 15 0;
#X connect 13 0 12 1;
#X connect 13 0 14 0;
#X connect 14 0 16 0;
#X connect 15 0 13 0;
#X connect 16 0 7 0;
#X connect 16 0 17 0;
#X connect 16 1 8 0;
#X connect 16 1 17 0;
#X connect 17 0 18 0;
#X connect 18 0 13 0;
#X connect 20 0 10 0;
#X connect 24 0 22 0;
#X connect 25 0 21 0;
#X connect 26 0 5 0;
#X restore 89 144 pd module;
#X obj 89 164 s module;
#N canvas 136 100 1211 933 page 0;
#X obj 193 11 ctlin;
#X floatatom 191 246 5 0 0 0 - - -, f 5;
#X obj 207 203 -;
#X obj 204 136 moses 63;
#X obj 257 158 t b;
#X obj 208 106 f;
#X obj 237 185 f 128;
#X obj 324 164 symbol;
#X msg 412 273 label \$1;
#X obj 157 277 +;
#X obj 51 264 f 0;
#X floatatom 51 289 5 0 0 0 - - -, f 5;
#X obj 88 242 clip -10 10;
#X obj 52 311 sel -10 10;
#X obj 100 349 bng 15 250 50 0 empty empty empty 17 7 0 10 -262144
-1 -1;
#X obj 150 322 f 0;
#X obj 411 298 outlet;
#X msg 63 377 send /PagePrev 1;
#X msg 201 376 send /PageNext 1;
#X obj 336 105 routeOSC /page;
#X obj 336 76 r knobs-oscIn;
#X obj 201 422 s knobs-oscOut;
#X obj 64 424 s knobs-oscOut;
#X msg 371 138 label;
#X obj 410 235 s p4Desc;
#X obj 410 164 s p1Desc;
#X obj 410 188 s p2Desc;
#X obj 410 210 s p3Desc;
#X obj 339 425 s serialOscOut;
#X obj 266 300 list;
#X obj 302 273 list;
#X obj 304 244 r moduleSel;
#X msg 338 367 send /header \$2 \$1;
#X obj 201 397 debounce 100;
#X obj 63 402 debounce 100;
#X obj 338 397 debounce 100;
#X obj 236 79 sel 63;
#X obj 481 165 s p1Value;
#X obj 481 188 s p2Value;
#X obj 480 211 s p3Value;
#X obj 480 236 s p4Value;
#X obj 473 93 r clear;
#X connect 0 0 5 1;
#X connect 0 1 36 0;
#X connect 1 0 9 0;
#X connect 2 0 1 0;
#X connect 3 0 1 0;
#X connect 3 1 2 0;
#X connect 3 1 4 0;
#X connect 4 0 6 0;
#X connect 5 0 3 0;
#X connect 6 0 2 1;
#X connect 7 0 8 0;
#X connect 7 0 29 0;
#X connect 8 0 16 0;
#X connect 9 0 12 0;
#X connect 10 0 9 1;
#X connect 10 0 11 0;
#X connect 11 0 13 0;
#X connect 12 0 10 0;
#X connect 13 0 14 0;
#X connect 13 0 17 0;
#X connect 13 1 18 0;
#X connect 13 1 14 0;
#X connect 14 0 15 0;
#X connect 15 0 10 0;
#X connect 17 0 34 0;
#X connect 18 0 33 0;
#X connect 19 0 7 0;
#X connect 19 0 23 0;
#X connect 20 0 19 0;
#X connect 23 0 24 0;
#X connect 23 0 25 0;
#X connect 23 0 26 0;
#X connect 23 0 27 0;
#X connect 23 0 37 0;
#X connect 23 0 38 0;
#X connect 23 0 39 0;
#X connect 23 0 40 0;
#X connect 29 0 32 0;
#X connect 30 0 29 1;
#X connect 31 0 30 0;
#X connect 32 0 35 0;
#X connect 33 0 21 0;
#X connect 34 0 22 0;
#X connect 35 0 28 0;
#X connect 36 0 5 0;
#X connect 41 0 23 0;
#X restore 160 144 pd page;
#X obj 160 165 s page;
#X obj 17 70 hsl 44 15 0 1 0 0 empty empty empty -2 -8 0 10 -228856
-1 -1 1830 1;
#X obj 150 69 hsl 44 15 0 1 0 0 empty empty empty -2 -8 0 10 -228856
-1 -1 897 1;
#X obj 213 69 hsl 44 15 0 1 0 0 empty empty empty -2 -8 0 10 -228856
-1 -1 2150 1;
#X obj 83 69 hsl 44 15 0 1 0 0 empty empty empty -2 -8 0 10 -228856
-1 -1 4300 1;
#X obj 146 87 cnv 15 50 16 empty p3Desc empty 4 8 0 8 -233017 -66577
0;
#X obj 209 87 cnv 15 50 16 empty p4Desc empty 4 8 0 8 -233017 -66577
0;
#X obj 79 101 cnv 15 50 16 empty p2Value empty 10 8 0 6 -233017 -66577
0;
#N canvas 205 54 1542 997 connect 0;
#X obj 28 451 tgl 15 0 empty empty empty 17 7 0 10 -262144 -1 -1 1
1;
#X obj 388 398 unpackOSC;
#X obj 17 283 packOSC;
#X text 140 463 stuff going out (from patch)...;
#X text 52 450 connected to mother background program;
#X obj 17 323 list prepend send;
#X obj 27 385 list trim;
#X obj 27 426 netsend -u -b;
#X obj 406 375 netreceive -u -b;
#X msg 428 333 listen \$1;
#X msg 304 339 send /Connect \$1;
#X obj 157 242 symbol;
#X obj 217 392 print SEND:;
#X obj 515 375 print LISTEN:;
#X obj 347 273 int;
#X obj 279 263 int;
#X msg 210 316 disconnect;
#X obj 160 181 t b b b b b s;
#X msg 526 343 listen 0;
#X msg 164 291 connect \$1 6100;
#X obj 51 5 loadbang;
#X obj 234 98 t b b;
#X obj 272 64 bng 15 250 50 0 empty empty empty 17 7 0 10 -262144 -1
-1;
#X obj 288 178 int 6201;
#X obj 160 153 symbol;
#X msg 182 123 localhost;
#X obj 315 424 s knobs-oscIn;
#X obj 297 373 s knobs-oscOut;
#X obj 17 240 r knobs-oscOut;
#X obj 38 114 comport;
#X obj 38 134 print;
#X msg 38 87 devices;
#X obj 434 265 comport 32 115200;
#X msg 366 174 open 32;
#X obj 322 62 r serialOscOut;
#X obj 284 5 inlet;
#X obj 424 176 slipenc;
#X obj 673 37 inlet;
#X msg 491 222 close;
#X obj 446 135 packOSC;
#X obj 354 102 print Serial;
#X msg 459 107 /tick \$1;
#X obj 467 198 tgl 15 0 empty empty empty 17 7 0 10 -262144 -1 -1 0
1;
#X obj 422 219 spigot 0;
#X floatatom 489 178 5 0 0 0 - - -, f 5;
#X obj 376 133 f 0;
#X obj 524 114 t a b;
#X msg 539 94 /bye;
#X obj 533 142 pipe 30;
#N canvas 159 73 1076 949 shake 0;
#X obj 58 100 routeOSC /shake;
#X obj 115 137 unpack f f f f f;
#X obj 34 183 s shake1;
#X obj 85 210 s shake2;
#X obj 150 213 s shake3;
#X obj 209 212 s shake4;
#X obj 276 214 s shake5;
#X obj 48 46 r knobs-oscIn;
#X connect 0 0 1 0;
#X connect 1 0 2 0;
#X connect 1 1 3 0;
#X connect 1 2 4 0;
#X connect 1 3 5 0;
#X connect 1 4 6 0;
#X connect 7 0 0 0;
#X restore 532 417 pd shake;
#X obj 108 114 midiout;
#X msg 122 85 250;
#X obj 147 37 delay 3 1 sec;
#X obj 404 424 routeOSC /connect;
#X obj 336 6 r connect;
#X obj 658 62 bng 15 250 50 0 empty empty empty 17 7 0 10 -262144 -1
-1;
#X obj 421 448 sel 1;
#X obj 375 470 s connect;
#X obj 458 469 s disconnect;
#X obj 634 6 r disconnect;
#N canvas 0 54 1332 860 beat 0;
#X obj 28 18 r master-ticks;
#X obj 57 67 f;
#X obj 96 66 + 1;
#X obj 57 41 sel 0;
#X obj 56 91 % 128;
#X obj 71 124 outlet;
#X obj 33 150 s beat;
#X obj 123 116 / 8;
#X obj 113 194 s bar;
#X obj 133 156 int;
#X connect 0 0 3 0;
#X connect 1 0 2 0;
#X connect 1 0 4 0;
#X connect 2 0 1 1;
#X connect 3 0 1 0;
#X connect 4 0 5 0;
#X connect 4 0 6 0;
#X connect 4 0 7 0;
#X connect 7 0 9 0;
#X connect 9 0 8 0;
#X restore 494 69 pd beat;
#X obj 434 154 t a;
#X msg 423 36 selectmodule 0;
#X obj 421 64 s rackMsgs;
#X obj 297 33 delay 1 1 sec;
#X obj 444 9 delay 1 1 sec;
#X obj 518 318 slipdec;
#X obj 466 290 spigot;
#X obj 409 262 tgl 15 0 empty empty empty 17 7 0 10 -262144 -1 -1 0
1;
#X obj 576 263 comport;
#X msg 551 199 devicename /dev/rfcomm8;
#X msg 603 235 close;
#X obj 652 148 s clear;
#X obj 687 122 s page;
#X obj 687 101 s module;
#X msg 686 80 label;
#X obj 328 146 spigot;
#X connect 1 0 26 0;
#X connect 1 0 53 0;
#X connect 2 0 5 0;
#X connect 5 0 6 0;
#X connect 6 0 7 0;
#X connect 7 0 0 0;
#X connect 8 0 1 0;
#X connect 9 0 8 0;
#X connect 9 0 13 0;
#X connect 10 0 27 0;
#X connect 11 0 19 0;
#X connect 14 0 9 0;
#X connect 15 0 10 0;
#X connect 16 0 7 0;
#X connect 17 0 15 0;
#X connect 17 1 11 0;
#X connect 17 2 16 0;
#X connect 17 3 14 0;
#X connect 17 4 18 0;
#X connect 17 5 11 1;
#X connect 18 0 8 0;
#X connect 19 0 7 0;
#X connect 19 0 12 0;
#X connect 20 0 52 0;
#X connect 21 0 25 0;
#X connect 21 1 23 0;
#X connect 22 0 21 0;
#X connect 22 0 45 0;
#X connect 22 0 51 0;
#X connect 22 0 65 0;
#X connect 22 0 76 0;
#X connect 23 0 15 1;
#X connect 23 0 14 1;
#X connect 24 0 17 0;
#X connect 25 0 24 0;
#X connect 28 0 2 0;
#X connect 29 0 30 0;
#X connect 31 0 29 0;
#X connect 32 0 67 0;
#X connect 33 0 32 0;
#X connect 34 0 39 0;
#X connect 34 0 40 0;
#X connect 35 0 52 0;
#X connect 36 0 43 0;
#X connect 37 0 55 0;
#X connect 38 0 32 0;
#X connect 39 0 61 0;
#X connect 41 0 39 0;
#X connect 42 0 43 1;
#X connect 43 0 32 0;
#X connect 44 0 42 0;
#X connect 45 0 42 0;
#X connect 45 0 76 1;
#X connect 46 0 39 0;
#X connect 46 1 48 0;
#X connect 47 0 46 0;
#X connect 48 0 44 0;
#X connect 48 0 38 0;
#X connect 51 0 50 0;
#X connect 52 0 22 0;
#X connect 53 0 56 0;
#X connect 54 0 64 0;
#X connect 55 0 47 0;
#X connect 55 0 71 0;
#X connect 55 0 72 0;
#X connect 55 0 75 0;
#X connect 56 0 57 0;
#X connect 56 1 58 0;
#X connect 59 0 55 0;
#X connect 60 0 41 0;
#X connect 61 0 36 0;
#X connect 62 0 63 0;
#X connect 64 0 22 0;
#X connect 65 0 62 0;
#X connect 66 0 1 0;
#X connect 67 0 66 0;
#X connect 68 0 67 1;
#X connect 69 0 66 0;
#X connect 70 0 69 0;
#X connect 71 0 69 0;
#X connect 75 0 74 0;
#X connect 75 0 73 0;
#X connect 76 0 33 0;
#X restore 14 164 pd connect;
#X obj 14 144 bng 15 250 50 0 empty empty empty 17 7 0 10 -262144 -1
-1;
#X obj 13 185 declare -path externals;
#X obj 64 144 bng 15 250 50 0 empty empty empty 17 7 0 10 -262144 -1
-1;
#N canvas 444 75 1305 972 nav 0;
#X obj 304 3 ctlin;
#X floatatom 311 224 5 0 0 0 - - -, f 5;
#X obj 324 200 -;
#X obj 321 133 moses 63;
#X obj 374 155 t b;
#X obj 321 102 f;
#X obj 354 182 f 128;
#X obj 277 255 +;
#X obj 171 242 f 0;
#X floatatom 171 267 5 0 0 0 - - -, f 5;
#X obj 208 220 clip -10 10;
#X obj 172 289 sel -10 10;
#X obj 243 338 bng 15 250 50 0 empty empty empty 17 7 0 10 -262144
-1 -1;
#X obj 270 300 f 0;
#X obj 131 381 s knobs-oscOut;
#X obj 13 381 s knobs-oscOut;
#X obj 421 424 s serialOscOut;
#X obj 131 356 debounce 100;
#X obj 13 357 debounce 100;
#X msg 13 332 send /NavPrev 1;
#X msg 131 335 send /NavNext 1;
#X obj 163 191 s knobs-oscOut;
#X msg 194 154 send /NavActivate 1;
#X msg 401 362 send /nav;
#X obj 374 41 bng 15 250 50 0 empty empty empty 17 7 0 10 -262144 -1
-1;
#X obj 222 132 bng 15 250 50 0 empty empty empty 17 7 0 10 -262144
-1 -1;
#X obj 278 26 pack;
#X obj 254 49 route 0;
#X obj 250 72 unpack;
#N canvas 63 151 1716 727 route 0;
#X obj 629 10 r knobs-oscIn;
#X obj 539 32 routeOSC /text /selectText /clearText;
#X msg 679 221 send /selectText \$1;
#X msg 702 254 send /clearText;
#X obj 631 82 change;
#X msg 53 223 send /text 1 \$1;
#X msg 180 223 send /text 2 \$1;
#X msg 302 224 send /text 3 \$1;
#X msg 419 225 send /text 4 \$1;
#X obj 95 191 symbol;
#X obj 327 190 symbol;
#X obj 246 191 symbol;
#X obj 162 189 symbol;
#X obj 434 191 symbol;
#X msg 528 224 send /text 5 \$1;
#X obj 157 93 route 1 2 3 4 5;
#X obj 389 135 debounce 40;
#X obj 307 135 debounce 40;
#X obj 227 135 debounce 40;
#X obj 139 135 debounce 40;
#X obj 55 136 debounce 40;
#X obj 531 337 s serialOscOut;
#X obj 532 300 spigot;
#X obj 529 103 r navigating;
#X obj 507 146 t b;
#X connect 0 0 1 0;
#X connect 1 0 15 0;
#X connect 1 1 4 0;
#X connect 1 2 3 0;
#X connect 2 0 22 0;
#X connect 3 0 21 0;
#X connect 4 0 2 0;
#X connect 5 0 22 0;
#X connect 6 0 22 0;
#X connect 7 0 22 0;
#X connect 8 0 22 0;
#X connect 9 0 5 0;
#X connect 10 0 8 0;
#X connect 11 0 7 0;
#X connect 12 0 6 0;
#X connect 13 0 14 0;
#X connect 14 0 22 0;
#X connect 15 0 20 0;
#X connect 15 1 19 0;
#X connect 15 2 18 0;
#X connect 15 3 17 0;
#X connect 15 4 16 0;
#X connect 16 0 13 0;
#X connect 17 0 10 0;
#X connect 18 0 11 0;
#X connect 19 0 12 0;
#X connect 20 0 9 0;
#X connect 22 0 21 0;
#X connect 23 0 22 1;
#X connect 23 0 24 0;
#X connect 24 0 13 0;
#X connect 24 0 11 0;
#X connect 24 0 12 0;
#X connect 24 0 9 0;
#X connect 24 0 10 0;
#X restore 466 74 pd route;
#X obj 412 390 debounce 200;
#X obj 270 414 tgl 15 0 empty empty empty 17 7 0 10 -262144 -1 -1 0
1;
#X obj 256 362 delay 3 1 sec;
#X obj 293 389 t 0;
#X obj 248 388 f 1;
#X obj 349 74 sel 61;
#X obj 238 96 sel 23;
#X obj 251 117 spigot;
#X obj 385 250 ctlin 20;
#X obj 450 250 ctlin 21;
#X obj 513 250 ctlin 22;
#X obj 281 454 s navigating;
#X obj 279 432 change;
#X obj 405 283 t b;
#X connect 0 0 5 1;
#X connect 0 0 26 0;
#X connect 0 1 24 0;
#X connect 0 1 26 1;
#X connect 0 1 35 0;
#X connect 1 0 7 0;
#X connect 2 0 1 0;
#X connect 3 0 1 0;
#X connect 3 1 2 0;
#X connect 3 1 4 0;
#X connect 4 0 6 0;
#X connect 5 0 3 0;
#X connect 6 0 2 1;
#X connect 7 0 10 0;
#X connect 8 0 7 1;
#X connect 8 0 9 0;
#X connect 9 0 11 0;
#X connect 10 0 8 0;
#X connect 11 0 12 0;
#X connect 11 0 19 0;
#X connect 11 1 20 0;
#X connect 11 1 12 0;
#X connect 12 0 13 0;
#X connect 12 0 23 0;
#X connect 12 0 32 0;
#X connect 12 0 34 0;
#X connect 13 0 8 0;
#X connect 17 0 14 0;
#X connect 18 0 15 0;
#X connect 19 0 18 0;
#X connect 20 0 17 0;
#X connect 22 0 21 0;
#X connect 23 0 30 0;
#X connect 25 0 22 0;
#X connect 25 0 23 0;
#X connect 26 0 27 0;
#X connect 27 1 28 0;
#X connect 28 1 36 0;
#X connect 30 0 16 0;
#X connect 31 0 37 1;
#X connect 31 0 42 0;
#X connect 32 0 33 0;
#X connect 33 0 31 0;
#X connect 34 0 31 0;
#X connect 35 0 5 0;
#X connect 36 0 37 0;
#X connect 37 0 25 0;
#X connect 38 0 43 0;
#X connect 39 0 43 0;
#X connect 40 0 43 0;
#X connect 42 0 41 0;
#X connect 43 0 33 0;
#X restore 210 144 pd nav;
#N canvas 0 54 1918 997 tracks 0;
#X obj 286 456 s rackMsgs;
#X obj 40 26 ctlin 20;
#X obj 105 26 ctlin 21;
#X obj 168 26 ctlin 22;
#X obj 10 89 tgl 15 0 empty empty empty 17 7 0 10 -262144 -1 -1 0 1
;
#X obj 51 122 s selecting;
#X obj 192 104 tgl 15 0 empty empty empty 17 7 0 10 -262144 -1 -1 0
1;
#X obj 268 105 tgl 15 0 empty empty empty 17 7 0 10 -262144 -1 -1 0
1;
#X obj 354 107 tgl 15 0 empty empty empty 17 7 0 10 -262144 -1 -1 0
1;
#X obj 432 107 tgl 15 0 empty empty empty 17 7 0 10 -262144 -1 -1 0
1;
#X obj 485 77 sel 0;
#X obj 499 103 bng 15 250 50 0 empty empty empty 17 7 0 10 -262144
-1 -1;
#X obj 485 54 ctlin 16;
#X obj 550 54 ctlin 17;
#X obj 613 54 ctlin 18;
#X obj 676 54 ctlin 19;
#X obj 551 78 sel 0;
#X obj 565 103 bng 15 250 50 0 empty empty empty 17 7 0 10 -262144
-1 -1;
#X obj 612 78 sel 0;
#X obj 626 104 bng 15 250 50 0 empty empty empty 17 7 0 10 -262144
-1 -1;
#X obj 674 78 sel 0;
#X obj 688 103 bng 15 250 50 0 empty empty empty 17 7 0 10 -262144
-1 -1;
#X obj 495 130 f 0;
#X obj 238 234 spigot;
#X floatatom 531 194 5 0 0 0 - - -, f 5;
#X floatatom 323 264 5 0 0 0 - - -, f 5;
#X floatatom 414 264 5 0 0 0 - - -, f 5;
#X floatatom 503 265 5 0 0 0 - - -, f 5;
#X obj 320 233 spigot;
#X obj 409 233 spigot;
#X obj 497 233 spigot;
#X floatatom 238 265 5 0 0 0 - - -, f 5;
#X obj 215 289 +;
#X obj 202 194 f 0;
#X obj 171 145 sel 0;
#X obj 177 168 t b;
#X obj 304 289 +;
#X obj 400 291 +;
#X obj 485 291 +;
#X obj 248 144 sel 0;
#X obj 254 168 t b;
#X obj 324 146 sel 0;
#X obj 330 169 t b;
#X obj 415 141 sel 0;
#X obj 415 166 t b;
#X obj 305 317 change;
#X msg 227 432 selectmodule \$1;
#X obj 231 26 ctlin 23;
#X obj 277 49 spigot 1;
#X obj 358 7 r disablectl-23;
#X obj 360 30 == 0;
#X obj 288 195 f 4;
#X obj 369 192 f 8;
#X obj 453 192 f 12;
#X obj 558 129 f 1;
#X obj 622 129 f 2;
#X obj 678 129 f 3;
#X obj 281 343 * 4;
#X obj 80 242 f 0;
#X obj 113 243 f 1;
#X obj 143 243 f 2;
#X obj 170 243 f 3;
#X obj 203 370 +;
#X floatatom 202 411 5 0 0 0 - - -, f 5;
#X obj 159 393 spigot;
#X obj 141 349 tgl 15 0 empty empty empty 17 7 0 10 -262144 -1 -1 0
1;
#X obj 617 189 s unselect;
#X obj 35 323 r unselect;
#X obj 70 356 f 0;
#X obj 54 284 sel 0;
#X obj 573 452 s serialOscOut;
#X msg 572 408 send /track \$1;
#X obj 742 55 r activeModule;
#X obj 742 83 symbol;
#X obj 742 111 list fromsymbol;
#X obj 742 137 list split 2;
#X obj 744 349 list tosymbol;
#X obj 744 380 s activeChain;
#X msg 689 410 send /pattern 65536;
#X obj 290 392 change;
#X obj 739 168 unpack;
#X obj 698 192 expr ($i1-97)*4 + $i2-49;
#X obj 654 289 expr $i1/4+97;
#X obj 746 290 expr $i1%4+49;
#X obj 745 325 pack;
#X obj 542 353 s track;
#X obj 704 260 t f f f f;
#X obj 701 227 change -1;
#X connect 1 0 4 0;
#X connect 1 0 6 0;
#X connect 2 0 4 0;
#X connect 2 0 7 0;
#X connect 3 0 4 0;
#X connect 3 0 8 0;
#X connect 4 0 5 0;
#X connect 4 0 69 0;
#X connect 6 0 23 1;
#X connect 6 0 34 0;
#X connect 7 0 28 1;
#X connect 7 0 39 0;
#X connect 8 0 29 1;
#X connect 8 0 41 0;
#X connect 9 0 30 1;
#X connect 9 0 43 0;
#X connect 10 1 11 0;
#X connect 11 0 22 0;
#X connect 11 0 66 0;
#X connect 12 0 10 0;
#X connect 13 0 16 0;
#X connect 14 0 18 0;
#X connect 15 0 20 0;
#X connect 16 1 17 0;
#X connect 17 0 54 0;
#X connect 17 0 66 0;
#X connect 18 1 19 0;
#X connect 19 0 55 0;
#X connect 19 0 66 0;
#X connect 20 1 21 0;
#X connect 21 0 56 0;
#X connect 21 0 66 0;
#X connect 22 0 24 0;
#X connect 23 0 31 0;
#X connect 24 0 23 0;
#X connect 24 0 28 0;
#X connect 24 0 29 0;
#X connect 24 0 30 0;
#X connect 25 0 36 0;
#X connect 26 0 37 0;
#X connect 27 0 38 0;
#X connect 28 0 25 0;
#X connect 29 0 26 0;
#X connect 30 0 27 0;
#X connect 31 0 32 0;
#X connect 32 0 45 0;
#X connect 33 0 32 1;
#X connect 34 0 58 0;
#X connect 34 1 35 0;
#X connect 35 0 33 0;
#X connect 36 0 45 0;
#X connect 37 0 45 0;
#X connect 38 0 45 0;
#X connect 39 0 59 0;
#X connect 39 1 40 0;
#X connect 40 0 51 0;
#X connect 41 0 60 0;
#X connect 41 1 42 0;
#X connect 42 0 52 0;
#X connect 43 0 61 0;
#X connect 43 1 44 0;
#X connect 44 0 53 0;
#X connect 45 0 57 0;
#X connect 46 0 0 0;
#X connect 47 0 48 0;
#X connect 48 0 4 0;
#X connect 48 0 9 0;
#X connect 49 0 50 0;
#X connect 50 0 48 1;
#X connect 51 0 36 1;
#X connect 52 0 37 1;
#X connect 53 0 38 1;
#X connect 54 0 24 0;
#X connect 55 0 24 0;
#X connect 56 0 24 0;
#X connect 57 0 62 1;
#X connect 57 0 63 0;
#X connect 58 0 62 0;
#X connect 59 0 62 0;
#X connect 60 0 62 0;
#X connect 61 0 62 0;
#X connect 62 0 64 0;
#X connect 63 0 79 0;
#X connect 64 0 63 0;
#X connect 65 0 64 1;
#X connect 67 0 68 0;
#X connect 68 0 65 0;
#X connect 69 1 65 0;
#X connect 71 0 70 0;
#X connect 72 0 73 0;
#X connect 73 0 74 0;
#X connect 74 0 75 0;
#X connect 75 0 80 0;
#X connect 76 0 77 0;
#X connect 78 0 70 0;
#X connect 79 0 46 0;
#X connect 80 0 81 0;
#X connect 80 1 81 1;
#X connect 81 0 87 0;
#X connect 82 0 84 0;
#X connect 83 0 84 1;
#X connect 84 0 76 0;
#X connect 86 0 82 0;
#X connect 86 1 83 0;
#X connect 86 1 85 0;
#X connect 86 2 71 0;
#X connect 86 3 78 0;
#X connect 87 0 86 0;
#X restore 160 185 pd tracks;
#X obj 14 49 knob 1 \$1;
#X obj 13 121 r loadbang-\$1;
#N canvas 226 346 619 356 menu 0;
#X obj 2 2 menudisp;
#N canvas 608 393 1014 666 keyboard 0;
#X obj 50 287 keyname;
#X obj 113 109 tgl 15 0 empty empty empty 17 7 0 10 -262144 -1 -1 0
1;
#X obj 49 342 spigot 1;
#X obj 50 316 pack 0 s;
#X obj 49 363 route 1;
#X obj 47 440 s PageNext;
#X obj 120 441 s PagePrev;
#X obj 100 480 s NavActivate;
#X obj 198 544 s ModNext;
#X obj 276 544 s ModPrev;
#X obj 192 480 s NavPrev;
#X obj 264 480 s NavNext;
#X obj 49 394 route Next Prior Return Up Down Right Left;
#X msg 75 266 1;
#X obj 75 234 loadbang;
#X text 135 105 enable/disable keyboard;
#X obj 372 151 r NavActivate;
#X msg 372 232 send /NavActivate 1;
#X obj 169 150 r NavPrev;
#X obj 270 150 r NavNext;
#X msg 169 231 send /NavPrev 1;
#X msg 270 231 send /NavNext 1;
#X obj 169 274 s knobs-oscOut;
#X obj 270 274 s knobs-oscOut;
#X obj 372 275 s knobs-oscOut;
#X connect 0 0 3 0;
#X connect 0 1 3 1;
#X connect 1 0 2 1;
#X connect 2 0 4 0;
#X connect 3 0 2 0;
#X connect 4 0 12 0;
#X connect 12 0 5 0;
#X connect 12 1 6 0;
#X connect 12 2 7 0;
#X connect 12 3 10 0;
#X connect 12 4 11 0;
#X connect 12 5 8 0;
#X connect 12 6 9 0;
#X connect 13 0 1 0;
#X connect 14 0 13 0;
#X connect 16 0 17 0;
#X connect 17 0 24 0;
#X connect 18 0 20 0;
#X connect 19 0 21 0;
#X connect 20 0 22 0;
#X connect 21 0 23 0;
#X coords 0 0 1 1 200 30 2 100 100;
#X restore 3 144 pd keyboard;
#X restore 179 121 pd menu;
#N canvas 1 54 450 300 aux 0;
#X obj 51 114 s oaux;
#X obj 52 64 > 0;
#X obj 65 89 spigot;
#X obj 118 21 r selecting;
#X obj 119 46 == 0;
#X obj 53 20 ctlin 16;
#X connect 1 0 2 0;
#X connect 2 0 0 0;
#X connect 3 0 4 0;
#X connect 4 0 2 1;
#X connect 5 0 1 0;
#X restore 222 185 pd aux;
#N canvas 400 59 1463 878 trackvol 0;
#X obj 33 362 s rackMsgs;
#X obj 202 205 r activeChain;
#X obj 43 109 -;
#X obj 31 41 moses 63;
#X obj 93 64 t b;
#X obj 73 88 f 128;
#X obj 31 133 clip -10 10;
#X obj 32 11 ctlin 60;
#X obj 35 228 t b;
#X obj 381 157 r trackvol;
#X obj 385 205 +;
#X obj 150 160 / 127;
#X obj 315 340 s rackMsgs;
#X msg 50 274 set getparam s1 r-chout-gain-\$1 0 trackvol;
#X msg 41 327 getparam s1 r-chout-gain-b1 0 trackvol;
#X obj 331 265 pack f s;
#X msg 322 300 setparam s1 r-chout-gain-\$2 \$1;
#X connect 1 0 13 0;
#X connect 1 0 15 1;
#X connect 2 0 6 0;
#X connect 3 0 6 0;
#X connect 3 1 2 0;
#X connect 3 1 4 0;
#X connect 4 0 5 0;
#X connect 5 0 2 1;
#X connect 6 0 8 0;
#X connect 6 0 11 0;
#X connect 7 0 3 0;
#X connect 8 0 14 0;
#X connect 9 0 10 0;
#X connect 10 0 15 0;
#X connect 11 0 10 1;
#X connect 13 0 14 0;
#X connect 14 0 0 0;
#X connect 15 0 16 0;
#X connect 16 0 12 0;
#X restore 102 121 pd trackvol;
#X obj 14 4 cnv 15 244 20 empty module empty 20 12 0 14 -233017 -66577
0;
#X obj 14 24 cnv 15 244 20 empty page empty 20 12 0 14 -233017 -66577
0;
#X obj 81 49 knob 2 \$1;
#X obj 147 49 knob 3 \$1;
#X obj 210 49 knob 4 \$1;
#X obj 13 87 cnv 15 50 16 empty p1Desc empty 4 8 0 8 -233017 -66577
0;
#X obj 79 87 cnv 15 50 16 empty p2Desc empty 4 8 0 8 -233017 -66577
0;
#X obj 146 101 cnv 15 50 16 empty p3Value empty 10 8 0 6 -233017 -66577
0;
#X obj 209 101 cnv 15 50 16 empty p4Value empty 10 8 0 6 -233017 -66577
0;
#X obj 13 100 cnv 15 50 16 empty p1Value empty 10 8 0 6 -233017 -66577
0;
#X obj 14 208 inlet~;
#X obj 54 208 outlet~;
#X obj 103 208 inlet~;
#X obj 143 208 outlet~;
#X connect 0 0 1 0;
#X connect 2 0 3 0;
#X connect 12 0 11 0;
#X connect 14 0 11 1;
#X connect 17 0 4 0;
#X connect 18 0 12 0;
#X connect 24 0 7 0;
#X connect 25 0 5 0;
#X connect 26 0 6 0;
#X connect 32 0 33 0;
#X connect 34 0 35 0;
