#N canvas 396 61 1021 991 10;
#X obj 139 216 inlet;
#X obj 136 448 outlet;
#X obj 135 403 pack 0 0 0;
#X obj 133 272 unpack 0 0 0;
#X obj 161 300 sel 0;
#X obj 143 325 t 0;
#X obj 162 348 * 0.8;
#X obj 165 373 + 25;
#X obj 179 8 r activeChain;
#X obj 200 164 sel \$1;
#X obj 139 242 spigot;
#X obj 197 212 tgl 15 0 empty empty empty 17 7 0 10 -262144 -1 -1 0
1;
#X obj 198 187 i 1;
#X obj 229 191 t 0;
#X obj 230 62 list fromsymbol;
#X obj 334 33 symbol \$1;
#X obj 202 140 spigot;
#X obj 181 28 t s s b;
#X obj 335 63 list fromsymbol;
#X obj 336 87 list split 1;
#X obj 235 87 list split 1;
#X obj 256 116 ==;
#X obj 274 145 tgl 15 0 empty empty empty 17 7 0 10 -262144 -1 -1 1
1;
#X obj 56 219 inlet~;
#X obj 10 219 inlet~;
#X obj 72 259 sig~;
#X obj 72 285 lop~ 5;
#X obj 21 259 sig~;
#X obj 21 285 lop~ 5;
#X obj 61 342 outlet~;
#X obj 10 342 outlet~;
#X obj 66 315 *~;
#X obj 14 314 *~;
#X obj 297 300 list prepend;
#X obj 341 326 list length;
#X obj 363 375 list split;
#X obj 225 357 f 0;
#X obj 213 425 pack 0 0 0;
#X msg 381 273 list;
#X obj 349 350 >= 10;
#X obj 269 325 t b;
#X obj 236 234 sel 0;
#X obj 339 426 list split 1;
#X obj 340 399 list;
#X obj 296 456 t b f;
#X obj 225 324 spigot;
#X obj 230 304 != 0;
#X connect 0 0 10 0;
#X connect 2 0 1 0;
#X connect 3 0 2 0;
#X connect 3 0 45 0;
#X connect 3 1 4 0;
#X connect 3 1 46 0;
#X connect 3 2 2 2;
#X connect 3 2 36 0;
#X connect 4 0 5 0;
#X connect 4 1 6 0;
#X connect 5 0 2 1;
#X connect 6 0 7 0;
#X connect 7 0 2 1;
#X connect 8 0 17 0;
#X connect 9 0 12 0;
#X connect 9 1 13 0;
#X connect 10 0 3 0;
#X connect 11 0 10 1;
#X connect 11 0 25 0;
#X connect 11 0 27 0;
#X connect 11 0 41 0;
#X connect 12 0 11 0;
#X connect 13 0 11 0;
#X connect 14 0 20 0;
#X connect 15 0 18 0;
#X connect 16 0 9 0;
#X connect 17 0 16 0;
#X connect 17 1 14 0;
#X connect 17 2 15 0;
#X connect 18 0 19 0;
#X connect 19 0 21 1;
#X connect 20 0 21 0;
#X connect 21 0 16 1;
#X connect 21 0 22 0;
#X connect 23 0 31 0;
#X connect 24 0 32 0;
#X connect 25 0 26 0;
#X connect 26 0 31 1;
#X connect 27 0 28 0;
#X connect 28 0 32 1;
#X connect 31 0 29 0;
#X connect 32 0 30 0;
#X connect 33 0 34 0;
#X connect 33 0 35 0;
#X connect 34 0 39 0;
#X connect 35 1 33 1;
#X connect 35 1 43 1;
#X connect 36 0 37 2;
#X connect 37 0 1 0;
#X connect 38 0 33 1;
#X connect 39 0 35 1;
#X connect 40 0 43 0;
#X connect 41 0 40 0;
#X connect 42 0 44 0;
#X connect 42 0 37 0;
#X connect 42 1 43 1;
#X connect 43 0 42 0;
#X connect 44 0 43 0;
#X connect 45 0 33 0;
#X connect 46 0 45 1;
