#N canvas 578 61 908 981 10;
#X obj 35 148 inlet;
#X obj 43 445 outlet;
#X obj 43 407 pack 0 0 0;
#X obj 41 276 unpack 0 0 0;
#X obj 128 305 sel 0;
#X obj 173 354 t 0;
#X obj 72 335 * 0.8;
#X obj 72 360 + 25;
#X obj 143 5 r activeChain;
#X obj 128 177 sel \$1;
#X obj 47 246 spigot;
#X obj 87 224 tgl 15 0 empty empty empty 17 7 0 10 -262144 -1 -1 0
1;
#X obj 88 199 i 1;
#X obj 119 203 t 0;
#X obj 194 59 list fromsymbol;
#X obj 298 30 symbol \$1;
#X obj 152 139 spigot;
#X obj 145 25 t s s b;
#X obj 299 60 list fromsymbol;
#X obj 300 87 list split 1;
#X obj 199 87 list split 1;
#X obj 220 116 ==;
#X obj 224 146 tgl 15 0 empty empty empty 17 7 0 10 -262144 -1 -1 0
1;
#X connect 0 0 10 0;
#X connect 2 0 1 0;
#X connect 3 0 2 0;
#X connect 3 1 4 0;
#X connect 3 2 2 2;
#X connect 4 0 5 0;
#X connect 4 1 6 0;
#X connect 5 0 2 1;
#X connect 6 0 7 0;
#X connect 7 0 2 1;
#X connect 8 0 17 0;
#X connect 9 0 12 0;
#X connect 9 1 13 0;
#X connect 10 0 3 0;
#X connect 11 0 10 1;
#X connect 12 0 11 0;
#X connect 13 0 11 0;
#X connect 14 0 20 0;
#X connect 15 0 18 0;
#X connect 16 0 9 0;
#X connect 17 0 16 0;
#X connect 17 1 14 0;
#X connect 17 2 15 0;
#X connect 18 0 19 0;
#X connect 19 0 21 1;
#X connect 20 0 21 0;
#X connect 21 0 16 1;
#X connect 21 0 22 0;
