#N canvas 881 343 779 547 10;
#N canvas 516 378 618 453 midigain 0;
#X obj 106 26 inlet;
#X obj 107 224 outlet;
#X obj 107 186 pack 0 0 0;
#X obj 105 55 unpack 0 0 0;
#X obj 192 84 sel 0;
#X obj 237 133 t 0;
#X obj 136 114 * 0.8;
#X obj 136 139 + 25;
#X connect 0 0 3 0;
#X connect 2 0 1 0;
#X connect 3 0 2 0;
#X connect 3 1 4 0;
#X connect 3 2 2 2;
#X connect 4 0 5 0;
#X connect 4 1 6 0;
#X connect 5 0 2 1;
#X connect 6 0 7 0;
#X connect 7 0 2 1;
#X restore 114 150 pd midigain;
#X obj 313 51 inlet~;
#X obj 405 50 inlet~;
#X obj 427 497 outlet~;
#X obj 326 497 outlet~;
#X obj 109 115 chainin \$2 \$1;
#X obj 104 194 fullmodule \$2-1 \$1;
#X obj 104 219 fullmodule \$2-2 \$1;
#X obj 104 243 fullmodule \$2-3 \$1;
#X obj 104 268 fullmodule \$2-4 \$1;
#X obj 113 314 chainout \$2 \$1;
#N canvas 516 378 618 453 midigain 0;
#X obj 106 26 inlet;
#X obj 107 224 outlet;
#X obj 107 186 pack 0 0 0;
#X obj 105 55 unpack 0 0 0;
#X obj 192 84 sel 0;
#X obj 237 133 t 0;
#X obj 136 114 * 0.8;
#X obj 136 139 + 25;
#X connect 0 0 3 0;
#X connect 2 0 1 0;
#X connect 3 0 2 0;
#X connect 3 1 4 0;
#X connect 3 2 2 2;
#X connect 4 0 5 0;
#X connect 4 1 6 0;
#X connect 5 0 2 1;
#X connect 6 0 7 0;
#X connect 7 0 2 1;
#X restore 253 150 pd midigain;
#N canvas 516 378 618 453 midigain 0;
#X obj 106 26 inlet;
#X obj 107 224 outlet;
#X obj 107 186 pack 0 0 0;
#X obj 105 55 unpack 0 0 0;
#X obj 192 84 sel 0;
#X obj 237 133 t 0;
#X obj 136 114 * 0.8;
#X obj 136 139 + 25;
#X connect 0 0 3 0;
#X connect 2 0 1 0;
#X connect 3 0 2 0;
#X connect 3 1 4 0;
#X connect 3 2 2 2;
#X connect 4 0 5 0;
#X connect 4 1 6 0;
#X connect 5 0 2 1;
#X connect 6 0 7 0;
#X connect 7 0 2 1;
#X restore 397 151 pd midigain;
#N canvas 516 378 618 453 midigain 0;
#X obj 106 26 inlet;
#X obj 107 224 outlet;
#X obj 107 186 pack 0 0 0;
#X obj 105 55 unpack 0 0 0;
#X obj 192 84 sel 0;
#X obj 237 133 t 0;
#X obj 136 114 * 0.8;
#X obj 136 139 + 25;
#X connect 0 0 3 0;
#X connect 2 0 1 0;
#X connect 3 0 2 0;
#X connect 3 1 4 0;
#X connect 3 2 2 2;
#X connect 4 0 5 0;
#X connect 4 1 6 0;
#X connect 5 0 2 1;
#X connect 6 0 7 0;
#X connect 7 0 2 1;
#X restore 541 151 pd midigain;
#X obj 248 115 chainin \$3 \$1;
#X obj 243 194 fullmodule \$3-1 \$1;
#X obj 243 219 fullmodule \$3-2 \$1;
#X obj 243 243 fullmodule \$3-3 \$1;
#X obj 243 268 fullmodule \$3-4 \$1;
#X obj 252 314 chainout \$3 \$1;
#X obj 392 116 chainin \$4 \$1;
#X obj 387 195 fullmodule \$4-1 \$1;
#X obj 387 220 fullmodule \$4-2 \$1;
#X obj 387 244 fullmodule \$4-3 \$1;
#X obj 387 269 fullmodule \$4-4 \$1;
#X obj 396 315 chainout \$4 \$1;
#X obj 536 116 chainin \$5 \$1;
#X obj 531 195 fullmodule \$5-1 \$1;
#X obj 531 220 fullmodule \$5-2 \$1;
#X obj 531 244 fullmodule \$5-3 \$1;
#X obj 531 269 fullmodule \$5-4 \$1;
#X obj 540 315 chainout \$5 \$1;
#X obj 294 381 +~;
#X obj 156 382 +~;
#X obj 567 381 +~;
#X obj 429 382 +~;
#X obj 438 439 +~;
#X obj 300 440 +~;
#X connect 0 0 6 2;
#X connect 1 0 5 0;
#X connect 1 0 14 0;
#X connect 1 0 20 0;
#X connect 1 0 26 0;
#X connect 2 0 5 1;
#X connect 2 0 14 1;
#X connect 2 0 20 1;
#X connect 2 0 26 1;
#X connect 5 0 6 0;
#X connect 5 1 6 1;
#X connect 5 2 0 0;
#X connect 5 3 6 3;
#X connect 6 0 7 0;
#X connect 6 1 7 1;
#X connect 6 2 7 2;
#X connect 6 3 7 3;
#X connect 7 0 8 0;
#X connect 7 1 8 1;
#X connect 7 2 8 2;
#X connect 7 3 8 3;
#X connect 8 0 9 0;
#X connect 8 1 9 1;
#X connect 8 2 9 2;
#X connect 8 3 9 3;
#X connect 9 0 10 0;
#X connect 9 1 10 1;
#X connect 9 2 10 2;
#X connect 9 3 10 3;
#X connect 10 0 33 0;
#X connect 10 1 32 0;
#X connect 11 0 15 2;
#X connect 12 0 21 2;
#X connect 13 0 27 2;
#X connect 14 0 15 0;
#X connect 14 1 15 1;
#X connect 14 2 11 0;
#X connect 14 3 15 3;
#X connect 15 0 16 0;
#X connect 15 1 16 1;
#X connect 15 2 16 2;
#X connect 15 3 16 3;
#X connect 16 0 17 0;
#X connect 16 1 17 1;
#X connect 16 2 17 2;
#X connect 16 3 17 3;
#X connect 17 0 18 0;
#X connect 17 1 18 1;
#X connect 17 2 18 2;
#X connect 17 3 18 3;
#X connect 18 0 19 0;
#X connect 18 1 19 1;
#X connect 18 2 19 2;
#X connect 18 3 19 3;
#X connect 19 0 33 1;
#X connect 19 1 32 1;
#X connect 20 0 21 0;
#X connect 20 1 21 1;
#X connect 20 2 12 0;
#X connect 20 3 21 3;
#X connect 21 0 22 0;
#X connect 21 1 22 1;
#X connect 21 2 22 2;
#X connect 21 3 22 3;
#X connect 22 0 23 0;
#X connect 22 1 23 1;
#X connect 22 2 23 2;
#X connect 22 3 23 3;
#X connect 23 0 24 0;
#X connect 23 1 24 1;
#X connect 23 2 24 2;
#X connect 23 3 24 3;
#X connect 24 0 25 0;
#X connect 24 1 25 1;
#X connect 24 2 25 2;
#X connect 24 3 25 3;
#X connect 25 0 35 0;
#X connect 25 1 34 0;
#X connect 26 0 27 0;
#X connect 26 1 27 1;
#X connect 26 2 13 0;
#X connect 26 3 27 3;
#X connect 27 0 28 0;
#X connect 27 1 28 1;
#X connect 27 2 28 2;
#X connect 27 3 28 3;
#X connect 28 0 29 0;
#X connect 28 1 29 1;
#X connect 28 2 29 2;
#X connect 28 3 29 3;
#X connect 29 0 30 0;
#X connect 29 1 30 1;
#X connect 29 2 30 2;
#X connect 29 3 30 3;
#X connect 30 0 31 0;
#X connect 30 1 31 1;
#X connect 30 2 31 2;
#X connect 30 3 31 3;
#X connect 31 0 35 1;
#X connect 31 1 34 1;
#X connect 32 0 37 1;
#X connect 33 0 37 0;
#X connect 34 0 36 1;
#X connect 35 0 36 0;
#X connect 36 0 3 0;
#X connect 37 0 4 0;
