#N canvas 0 54 1161 997 10;
#X obj 230 14 inlet~;
#X obj 243 460 outlet~;
#X obj 30 277 chainout \$2 \$1;
#X obj 169 277 chainout \$3 \$1;
#X obj 313 278 chainout \$4 \$1;
#X obj 453 79 chainin \$5 \$1;
#X obj 457 278 chainout \$5 \$1;
#X obj 402 336 +~;
#X obj 73 345 +~;
#X obj 217 403 +~;
#X obj 469 115 gate \$5;
#X obj 181 115 gate \$3;
#X obj 43 115 gate \$2;
#X obj 325 116 gate \$4;
#X obj 26 78 chainin \$2 \$1;
#X obj 165 78 chainin \$3 \$1;
#X obj 309 79 chainin \$4 \$1;
#X obj 21 155 monomodule \$2-1 \$1;
#X obj 21 182 monomodule \$2-2 \$1;
#X obj 21 206 monomodule \$2-3 \$1;
#X obj 21 231 monomodule \$2-4 \$1;
#X obj 160 157 monomodule \$3-1 \$1;
#X obj 160 182 monomodule \$3-2 \$1;
#X obj 160 206 monomodule \$3-3 \$1;
#X obj 160 231 monomodule \$3-4 \$1;
#X obj 304 158 monomodule \$4-1 \$1;
#X obj 304 183 monomodule \$4-2 \$1;
#X obj 304 207 monomodule \$4-3 \$1;
#X obj 304 232 monomodule \$4-4 \$1;
#X obj 448 158 monomodule \$5-1 \$1;
#X obj 448 183 monomodule \$5-2 \$1;
#X obj 448 207 monomodule \$5-3 \$1;
#X obj 448 232 monomodule \$5-4 \$1;
#X connect 0 0 5 0;
#X connect 0 0 14 0;
#X connect 0 0 15 0;
#X connect 0 0 16 0;
#X connect 2 0 8 0;
#X connect 3 0 8 1;
#X connect 4 0 7 0;
#X connect 5 0 10 0;
#X connect 5 1 10 1;
#X connect 5 2 10 2;
#X connect 5 3 29 3;
#X connect 6 0 7 1;
#X connect 7 0 9 1;
#X connect 8 0 9 0;
#X connect 9 0 1 0;
#X connect 10 0 29 0;
#X connect 10 1 29 1;
#X connect 10 2 29 2;
#X connect 11 0 21 0;
#X connect 11 1 21 1;
#X connect 11 2 21 2;
#X connect 12 0 17 0;
#X connect 12 1 17 1;
#X connect 12 2 17 2;
#X connect 13 0 25 0;
#X connect 13 1 25 1;
#X connect 13 2 25 2;
#X connect 14 0 12 0;
#X connect 14 1 12 1;
#X connect 14 2 12 2;
#X connect 14 3 17 3;
#X connect 15 0 11 0;
#X connect 15 1 11 1;
#X connect 15 2 11 2;
#X connect 15 3 21 3;
#X connect 16 0 13 0;
#X connect 16 1 13 1;
#X connect 16 2 13 2;
#X connect 16 3 25 3;
#X connect 17 0 18 0;
#X connect 17 1 18 1;
#X connect 17 2 18 2;
#X connect 17 3 18 3;
#X connect 18 0 19 0;
#X connect 18 1 19 1;
#X connect 18 2 19 2;
#X connect 18 3 19 3;
#X connect 19 0 20 0;
#X connect 19 1 20 1;
#X connect 19 2 20 2;
#X connect 19 3 20 3;
#X connect 20 0 2 0;
#X connect 20 1 2 1;
#X connect 20 2 2 2;
#X connect 20 3 2 3;
#X connect 21 0 22 0;
#X connect 21 1 22 1;
#X connect 21 2 22 2;
#X connect 21 3 22 3;
#X connect 22 0 23 0;
#X connect 22 1 23 1;
#X connect 22 2 23 2;
#X connect 22 3 23 3;
#X connect 23 0 24 0;
#X connect 23 1 24 1;
#X connect 23 2 24 2;
#X connect 23 3 24 3;
#X connect 24 0 3 0;
#X connect 24 1 3 1;
#X connect 24 2 3 2;
#X connect 24 3 3 3;
#X connect 25 0 26 0;
#X connect 25 1 26 1;
#X connect 25 2 26 2;
#X connect 25 3 26 3;
#X connect 26 0 27 0;
#X connect 26 1 27 1;
#X connect 26 2 27 2;
#X connect 26 3 27 3;
#X connect 27 0 28 0;
#X connect 27 1 28 1;
#X connect 27 2 28 2;
#X connect 27 3 28 3;
#X connect 28 0 4 0;
#X connect 28 1 4 1;
#X connect 28 2 4 2;
#X connect 28 3 4 3;
#X connect 29 0 30 0;
#X connect 29 1 30 1;
#X connect 29 2 30 2;
#X connect 29 3 30 3;
#X connect 30 0 31 0;
#X connect 30 1 31 1;
#X connect 30 2 31 2;
#X connect 30 3 31 3;
#X connect 31 0 32 0;
#X connect 31 1 32 1;
#X connect 31 2 32 2;
#X connect 31 3 32 3;
#X connect 32 0 6 0;
#X connect 32 1 6 1;
#X connect 32 2 6 2;
#X connect 32 3 6 3;
