#N canvas 0 54 1161 997 10;
#X obj 230 14 inlet~;
#X obj 322 13 inlet~;
#X obj 344 460 outlet~;
#X obj 243 460 outlet~;
#X obj 26 78 chainin \$2 \$1;
#X obj 21 157 fullmodule \$2-1 \$1;
#X obj 21 182 fullmodule \$2-2 \$1;
#X obj 21 206 fullmodule \$2-3 \$1;
#X obj 21 231 fullmodule \$2-4 \$1;
#X obj 30 277 chainout \$2 \$1;
#X obj 165 78 chainin \$3 \$1;
#X obj 160 157 fullmodule \$3-1 \$1;
#X obj 160 182 fullmodule \$3-2 \$1;
#X obj 160 206 fullmodule \$3-3 \$1;
#X obj 160 231 fullmodule \$3-4 \$1;
#X obj 169 277 chainout \$3 \$1;
#X obj 309 79 chainin \$4 \$1;
#X obj 304 158 fullmodule \$4-1 \$1;
#X obj 304 183 fullmodule \$4-2 \$1;
#X obj 304 207 fullmodule \$4-3 \$1;
#X obj 304 232 fullmodule \$4-4 \$1;
#X obj 313 278 chainout \$4 \$1;
#X obj 453 79 chainin \$5 \$1;
#X obj 448 158 fullmodule \$5-1 \$1;
#X obj 448 183 fullmodule \$5-2 \$1;
#X obj 448 207 fullmodule \$5-3 \$1;
#X obj 448 232 fullmodule \$5-4 \$1;
#X obj 457 278 chainout \$5 \$1;
#X obj 402 336 +~;
#X obj 73 345 +~;
#X obj 484 344 +~;
#X obj 195 343 +~;
#X obj 355 402 +~;
#X obj 217 403 +~;
#X obj 469 115 gate \$5;
#X obj 181 115 gate \$3;
#X obj 43 115 gate \$2;
#X obj 325 116 gate \$4;
#X connect 0 0 4 0;
#X connect 0 0 10 0;
#X connect 0 0 16 0;
#X connect 0 0 22 0;
#X connect 1 0 4 1;
#X connect 1 0 10 1;
#X connect 1 0 16 1;
#X connect 1 0 22 1;
#X connect 4 0 36 0;
#X connect 4 1 36 1;
#X connect 4 2 36 2;
#X connect 4 3 5 3;
#X connect 5 0 6 0;
#X connect 5 1 6 1;
#X connect 5 2 6 2;
#X connect 5 3 6 3;
#X connect 6 0 7 0;
#X connect 6 1 7 1;
#X connect 6 2 7 2;
#X connect 6 3 7 3;
#X connect 7 0 8 0;
#X connect 7 1 8 1;
#X connect 7 2 8 2;
#X connect 7 3 8 3;
#X connect 8 0 9 0;
#X connect 8 1 9 1;
#X connect 8 2 9 2;
#X connect 8 3 9 3;
#X connect 9 0 29 0;
#X connect 9 1 31 0;
#X connect 10 0 35 0;
#X connect 10 1 35 1;
#X connect 10 2 35 2;
#X connect 10 3 11 3;
#X connect 11 0 12 0;
#X connect 11 1 12 1;
#X connect 11 2 12 2;
#X connect 11 3 12 3;
#X connect 12 0 13 0;
#X connect 12 1 13 1;
#X connect 12 2 13 2;
#X connect 12 3 13 3;
#X connect 13 0 14 0;
#X connect 13 1 14 1;
#X connect 13 2 14 2;
#X connect 13 3 14 3;
#X connect 14 0 15 0;
#X connect 14 1 15 1;
#X connect 14 2 15 2;
#X connect 14 3 15 3;
#X connect 15 0 29 1;
#X connect 15 1 31 1;
#X connect 16 0 37 0;
#X connect 16 1 37 1;
#X connect 16 2 37 2;
#X connect 16 3 17 3;
#X connect 17 0 18 0;
#X connect 17 1 18 1;
#X connect 17 2 18 2;
#X connect 17 3 18 3;
#X connect 18 0 19 0;
#X connect 18 1 19 1;
#X connect 18 2 19 2;
#X connect 18 3 19 3;
#X connect 19 0 20 0;
#X connect 19 1 20 1;
#X connect 19 2 20 2;
#X connect 19 3 20 3;
#X connect 20 0 21 0;
#X connect 20 1 21 1;
#X connect 20 2 21 2;
#X connect 20 3 21 3;
#X connect 21 0 28 0;
#X connect 21 1 30 0;
#X connect 22 0 34 0;
#X connect 22 1 34 1;
#X connect 22 2 34 2;
#X connect 22 3 23 3;
#X connect 23 0 24 0;
#X connect 23 1 24 1;
#X connect 23 2 24 2;
#X connect 23 3 24 3;
#X connect 24 0 25 0;
#X connect 24 1 25 1;
#X connect 24 2 25 2;
#X connect 24 3 25 3;
#X connect 25 0 26 0;
#X connect 25 1 26 1;
#X connect 25 2 26 2;
#X connect 25 3 26 3;
#X connect 26 0 27 0;
#X connect 26 1 27 1;
#X connect 26 2 27 2;
#X connect 26 3 27 3;
#X connect 27 0 28 1;
#X connect 27 1 30 1;
#X connect 28 0 33 1;
#X connect 29 0 33 0;
#X connect 30 0 32 1;
#X connect 31 0 32 0;
#X connect 32 0 2 0;
#X connect 33 0 3 0;
#X connect 34 0 23 0;
#X connect 34 1 23 1;
#X connect 34 2 23 2;
#X connect 35 0 11 0;
#X connect 35 1 11 1;
#X connect 35 2 11 2;
#X connect 36 0 5 0;
#X connect 36 1 5 1;
#X connect 36 2 5 2;
#X connect 37 0 17 0;
#X connect 37 1 17 1;
#X connect 37 2 17 2;
