#N canvas 379 200 1406 762 10;
#X obj 1223 398 auxmodule m1 \$1;
#X obj 1223 420 auxmodule m2 \$1;
#X obj 1223 441 auxmodule m3 \$1;
#X obj 1225 305 auxmodule s1 \$1;
#X obj 811 199 premodule p1 \$1;
#X obj 750 409 +~;
#X obj 843 409 +~;
#X obj 803 475 +~;
#X obj 896 475 +~;
#X obj 803 574 postmodule p2 \$1;
#X obj 240 51 r notesIn-\$1;
#X obj 279 205 s notesOut-\$1;
#X obj 25 51 inlet~ inL-\$1;
#X obj 135 51 inlet~ inR-\$1;
#X obj 64 205 outlet~ outL-\$1;
#X obj 173 205 outlet~ outR-\$1;
#X obj 425 51 r auxIn-\$1;
#X obj 507 51 r expIn-\$1;
#X obj 507 77 r fsIn-\$1;
#X obj 329 51 r ctrlIn-\$1;
#X obj 373 204 s ctrlOut-\$1;
#X obj 337 253 mainctrlhandler \$1;
#X obj 204 317 actmodhandler \$1;
#X obj 203 252 r activeModule;
#X obj 203 278 symbol;
#X obj 59 248 r r-main-dest-\$1;
#X obj 811 153 r~ oinL;
#X obj 898 153 r~ oinR;
#X obj 803 652 throw~ ooutL;
#X obj 896 653 throw~ ooutR;
#X obj 935 409 +~;
#X obj 1028 409 +~;
#X obj 622 324 group \$1 a1 a2 a3 a4;
#X obj 759 324 group \$1 b1 b2 b3 b4;
#X obj 898 323 group \$1 c1 c2 c3 c4;
#X obj 1037 323 group \$1 d1 d2 d3 d4;
#X obj 1225 327 auxmodule s2 \$1;
#X obj 1225 350 auxmodule s3 \$1;
#N canvas 136 54 1567 905 audioIO 0;
#X obj 513 376 dac~;
#X obj 192 166 adc~, f 6;
#X obj 482 219 clip~ -1 1;
#X obj 571 219 clip~ -1 1;
#X obj 483 273 *~ 1;
#X obj 572 275 *~ 1;
#X text 137 376 removed : tb_peakcomp~ -3 8 10 100 0;
#X obj 481 128 catch~ ooutL;
#X obj 634 134 catch~ ooutR;
#X obj 285 244 s~ oinR;
#X obj 110 244 s~ oinL;
#X obj 69 38 loadbang;
#X msg 70 106 \; pd dsp 1, f 10;
#X obj 70 77 delay 200;
#X connect 1 0 10 0;
#X connect 1 1 9 0;
#X connect 2 0 4 0;
#X connect 3 0 5 0;
#X connect 4 0 0 0;
#X connect 5 0 0 1;
#X connect 7 0 2 0;
#X connect 8 0 3 0;
#X connect 11 0 13 0;
#X connect 13 0 12 0;
#X restore 609 53 pd audioIO;
#X connect 4 0 32 0;
#X connect 4 0 33 0;
#X connect 4 0 34 0;
#X connect 4 0 35 0;
#X connect 4 1 32 1;
#X connect 4 1 33 1;
#X connect 4 1 34 1;
#X connect 4 1 35 1;
#X connect 5 0 7 0;
#X connect 6 0 8 0;
#X connect 7 0 9 0;
#X connect 8 0 9 1;
#X connect 9 0 28 0;
#X connect 9 1 29 0;
#X connect 23 0 24 0;
#X connect 24 0 22 0;
#X connect 26 0 4 0;
#X connect 27 0 4 1;
#X connect 30 0 7 1;
#X connect 31 0 8 1;
#X connect 32 0 5 0;
#X connect 32 1 6 0;
#X connect 33 0 5 1;
#X connect 33 1 6 1;
#X connect 34 0 30 0;
#X connect 34 1 31 0;
#X connect 35 0 30 1;
#X connect 35 1 31 1;
