#N canvas 383 200 1406 762 10;
#X obj 1223 398 auxmodule m1 \$1;
#X obj 1223 420 auxmodule m2 \$1;
#X obj 1223 441 auxmodule m3 \$1;
#X obj 1225 305 auxmodule s1 \$1;
#X obj 1225 327 auxmodule s2 \$1;
#X obj 811 199 premodule p1 \$1;
#X obj 750 409 +~;
#X obj 843 409 +~;
#X obj 803 475 +~;
#X obj 896 475 +~;
#X obj 803 574 postmodule p2 \$1;
#X obj 240 51 r notesIn-\$1;
#X obj 279 205 s notesOut-\$1;
#X obj 25 51 inlet~ inL-\$1;
#X obj 135 51 inlet~ inR-\$1;
#X obj 64 205 outlet~ outL-\$1;
#X obj 173 205 outlet~ outR-\$1;
#X obj 425 51 r auxIn-\$1;
#X obj 507 51 r expIn-\$1;
#X obj 507 77 r fsIn-\$1;
#X obj 329 51 r ctrlIn-\$1;
#X obj 373 204 s ctrlOut-\$1;
#X obj 337 253 mainctrlhandler \$1;
#X obj 204 317 actmodhandler \$1;
#X obj 203 252 r activeModule;
#X obj 203 278 symbol;
#X obj 59 248 r r-main-dest-\$1;
#X obj 811 153 r~ oinL;
#X obj 898 153 r~ oinR;
#X obj 803 652 throw~ ooutL;
#X obj 896 653 throw~ ooutR;
#X obj 935 409 +~;
#X obj 1028 409 +~;
#X obj 622 324 group \$1 a1 a2 a3 a4;
#X obj 759 324 group \$1 b1 b2 b3 b4;
#X obj 898 323 group \$1 c1 c2 c3 c4;
#X obj 1037 323 group \$1 d1 d2 d3 d4;
#X connect 5 0 33 0;
#X connect 5 0 34 0;
#X connect 5 0 35 0;
#X connect 5 0 36 0;
#X connect 5 1 33 1;
#X connect 5 1 34 1;
#X connect 5 1 35 1;
#X connect 5 1 36 1;
#X connect 6 0 8 0;
#X connect 7 0 9 0;
#X connect 8 0 10 0;
#X connect 9 0 10 1;
#X connect 10 0 29 0;
#X connect 10 1 30 0;
#X connect 24 0 25 0;
#X connect 25 0 23 0;
#X connect 27 0 5 0;
#X connect 28 0 5 1;
#X connect 31 0 8 1;
#X connect 32 0 9 1;
#X connect 33 0 6 0;
#X connect 33 1 7 0;
#X connect 34 0 6 1;
#X connect 34 1 7 1;
#X connect 35 0 31 0;
#X connect 36 0 31 1;
#X connect 36 0 32 0;
#X connect 36 1 32 1;
