#N canvas 116 120 1654 890 10;
#X declare -path externals;
#X declare -path subpatches;
#N canvas 932 475 1338 833 rack 0;
#X msg 234 183 knob1Raw \$1;
#X msg 490 183 knob4Raw \$1;
#X msg 406 183 knob3Raw \$1;
#X msg 322 183 knob2Raw \$1;
#X msg 577 183 enc \$1;
#X msg 633 183 encbut \$1;
#X obj 44 29 loadbang;
#X obj 920 183 routeOSC /key;
#X obj 920 145 r oscIn;
#X msg 920 219 key \$1 \$2;
#X msg 116 145 loadsettings rack;
#X obj 118 110 s rackloaded;
#X obj 21 232 r rackMsgs;
#X obj 44 67 t b b;
#X msg 723 183 pgm \$1;
#X obj 234 145 r oknob1Raw;
#X obj 322 145 r oknob2Raw;
#X obj 406 145 r oknob3Raw;
#X obj 490 145 r oknob4Raw;
#X obj 577 145 r oenc;
#X obj 633 145 r oencbut;
#X obj 723 145 r opgmChg;
#X obj 812 76 ctlin;
#X obj 812 142 pack 0 0 0;
#X obj 812 98 t b f;
#X msg 812 183 midiCC \$1 \$2 \$3;
#X obj 812 120 f 0;
#X obj 656 549 r oselectmodule;
#X obj 892 398 r osavepreset;
#X obj 795 399 r onextpreset;
#X obj 657 399 r oprevpreset;
#X obj 657 420 sel 1;
#X obj 657 462 s rackMsgs;
#X obj 795 420 sel 1;
#X obj 795 462 s rackMsgs;
#X obj 892 419 sel 1;
#X obj 892 461 s rackMsgs;
#X obj 656 591 s rackMsgs;
#X msg 795 441 nextpreset;
#X msg 657 441 prevpreset;
#X msg 892 440 savecurrentpreset;
#X msg 656 570 selectmodule \$1;
#X obj 116 463 KontrolRack midi 6000 6001;
#X connect 0 0 42 0;
#X connect 1 0 42 0;
#X connect 2 0 42 0;
#X connect 3 0 42 0;
#X connect 4 0 42 0;
#X connect 5 0 42 0;
#X connect 6 0 13 0;
#X connect 7 0 9 0;
#X connect 8 0 7 0;
#X connect 9 0 42 0;
#X connect 10 0 42 0;
#X connect 12 0 42 0;
#X connect 13 0 10 0;
#X connect 13 1 11 0;
#X connect 14 0 42 0;
#X connect 15 0 0 0;
#X connect 16 0 3 0;
#X connect 17 0 2 0;
#X connect 18 0 1 0;
#X connect 19 0 4 0;
#X connect 20 0 5 0;
#X connect 21 0 14 0;
#X connect 22 0 24 0;
#X connect 22 1 23 1;
#X connect 22 2 26 1;
#X connect 23 0 25 0;
#X connect 24 0 26 0;
#X connect 24 1 23 2;
#X connect 25 0 42 0;
#X connect 26 0 23 0;
#X connect 27 0 41 0;
#X connect 28 0 35 0;
#X connect 29 0 33 0;
#X connect 30 0 31 0;
#X connect 31 0 39 0;
#X connect 33 0 38 0;
#X connect 35 0 40 0;
#X connect 38 0 34 0;
#X connect 39 0 32 0;
#X connect 40 0 36 0;
#X connect 41 0 37 0;
#X restore 50 9 pd rack;
#X text 50 38 module slots;
#X text 395 39 dummy targets;
#X obj 748 65 declare -path externals;
#N canvas 777 597 763 454 startup 0;
#X obj 175 39 r activeModule;
#X obj 63 39 loadbang;
#X obj 63 202 symbol m0;
#X obj 63 70 del 500;
#X obj 63 264 s activeModule;
#X obj 63 233 spigot 0;
#X obj 63 101 t b b b;
#X msg 111 136 1;
#X msg 47 136 0;
#X text 297 38 a temporary fix;
#X text 300 68 during startup modules might 'miss' the active module
being set \, as they are not loaded yet \, so here we repeat it after
500ms;
#X obj 175 86 symbol;
#X msg 211 130;
#X obj 331 129 int 0;
#X obj 331 150 s led;
#X obj 211 151 s auxLine;
#X connect 0 0 11 0;
#X connect 1 0 3 0;
#X connect 1 0 12 0;
#X connect 1 0 13 0;
#X connect 2 0 5 0;
#X connect 3 0 6 0;
#X connect 5 0 4 0;
#X connect 6 0 8 0;
#X connect 6 1 2 0;
#X connect 6 2 7 0;
#X connect 7 0 5 1;
#X connect 8 0 5 1;
#X connect 11 0 2 1;
#X connect 12 0 15 0;
#X connect 13 0 14 0;
#X restore 114 9 pd startup;
#X obj 748 88 declare -path subpatches;
#X text 194 8 ORAC module v2;
#N canvas 526 787 794 264 s1 0;
#X obj 5 5 r~ inL-s1;
#X obj 55 5 r~ inR-s1;
#X obj 5 30 ../../../../modules/tracks/module s1;
#X obj 5 55 s~ outL-s1;
#X obj 55 55 s~ outR-s1;
#X obj 200 0 r rackloaded;
#X obj 200 15 t b b;
#X msg 200 30 loaddefinitions ../../../../modules/tracks/module.json
;
#X obj 200 55 KontrolModule s1 tracks;
#X obj 300 55 send loadbang-s1;
#X connect 0 0 2 0;
#X connect 1 0 2 1;
#X connect 2 0 3 0;
#X connect 2 1 4 0;
#X connect 5 0 6 0;
#X connect 6 0 9 0;
#X connect 6 1 7 0;
#X connect 7 0 8 0;
#X restore 35 60 pd s1;
#N canvas 653 563 885 356 s2 0;
#X obj 10 10 r~ inL-s2;
#X obj 110 10 r~ inR-s2;
#X obj 10 60 modules/utility/clock/module s2;
#X obj 10 110 s~ outL-s2;
#X obj 110 110 s~ outR-s2;
#X obj 400 1 r rackloaded;
#X obj 400 30 t b b;
#X msg 400 60 loaddefinitions modules/utility/clock/module.json;
#X obj 400 110 KontrolModule s2 utility/clock;
#X obj 600 110 send loadbang-s2;
#X connect 0 0 2 0;
#X connect 1 0 2 1;
#X connect 2 0 3 0;
#X connect 2 1 4 0;
#X connect 5 0 6 0;
#X connect 6 0 9 0;
#X connect 6 1 7 0;
#X connect 7 0 8 0;
#X restore 35 90 pd s2;
#N canvas 325 605 946 579 m1 0;
#X obj 10 10 r~ inL-m1;
#X obj 110 10 r~ inR-m1;
#X obj 10 60 modules/utility/empty/module m1;
#X obj 10 110 s~ outL-m1;
#X obj 110 110 s~ outR-m1;
#X obj 400 1 r rackloaded;
#X obj 400 30 t b b;
#X msg 400 60 loaddefinitions modules/utility/empty/module.json;
#X obj 400 110 KontrolModule m1 utility/empty;
#X obj 600 110 send loadbang-m1;
#X connect 0 0 2 0;
#X connect 1 0 2 1;
#X connect 2 0 3 0;
#X connect 2 1 4 0;
#X connect 5 0 6 0;
#X connect 6 0 9 0;
#X connect 6 1 7 0;
#X connect 7 0 8 0;
#X restore 88 60 pd m1;
#N canvas 495 614 693 304 m2 0;
#X obj 10 10 r~ inL-m2;
#X obj 110 10 r~ inR-m2;
#X obj 10 60 modules/utility/empty/module m2;
#X obj 10 110 s~ outL-m2;
#X obj 110 110 s~ outR-m2;
#X obj 400 1 r rackloaded;
#X obj 400 30 t b b;
#X msg 400 60 loaddefinitions modules/utility/empty/module.json;
#X obj 400 110 KontrolModule m2 utility/empty;
#X obj 600 110 send loadbang-m2;
#X connect 0 0 2 0;
#X connect 1 0 2 1;
#X connect 2 0 3 0;
#X connect 2 1 4 0;
#X connect 5 0 6 0;
#X connect 6 0 9 0;
#X connect 6 1 7 0;
#X connect 7 0 8 0;
#X restore 88 90 pd m2;
#N canvas 714 538 943 317 m3 0;
#X obj 10 10 r~ inL-m3;
#X obj 110 10 r~ inR-m3;
#X obj 10 60 modules/utility/empty/module m3;
#X obj 10 110 s~ outL-m3;
#X obj 110 110 s~ outR-m3;
#X obj 400 1 r rackloaded;
#X obj 400 30 t b b;
#X msg 400 60 loaddefinitions modules/utility/empty/module.json;
#X obj 400 110 KontrolModule m3 utility/empty;
#X obj 600 110 send loadbang-m3;
#X connect 0 0 2 0;
#X connect 1 0 2 1;
#X connect 2 0 3 0;
#X connect 2 1 4 0;
#X connect 5 0 6 0;
#X connect 6 0 9 0;
#X connect 6 1 7 0;
#X connect 7 0 8 0;
#X restore 88 118 pd m3;
#N canvas 504 887 794 264 p1 0;
#X obj 10 10 r~ inL-p1;
#X obj 110 10 r~ inR-p1;
#X obj 10 60 modules/utility/empty/module p1;
#X obj 10 110 s~ outL-p1;
#X obj 110 110 s~ outR-p1;
#X obj 400 1 r rackloaded;
#X obj 400 30 t b b;
#X msg 400 60 loaddefinitions modules/utility/empty/module.json;
#X obj 400 110 KontrolModule p1 utility/empty;
#X obj 600 110 send loadbang-p1;
#X connect 0 0 2 0;
#X connect 1 0 2 1;
#X connect 2 0 3 0;
#X connect 2 1 4 0;
#X connect 5 0 6 0;
#X connect 6 0 9 0;
#X connect 6 1 7 0;
#X connect 7 0 8 0;
#X restore 318 60 pd p1;
#N canvas 653 563 885 356 p2 0;
#X obj 10 10 r~ inL-p2;
#X obj 110 10 r~ inR-p2;
#X obj 10 60 modules/utility/empty/module p2;
#X obj 10 110 s~ outL-p2;
#X obj 110 110 s~ outR-p2;
#X obj 400 1 r rackloaded;
#X obj 400 30 t b b;
#X msg 400 60 loaddefinitions modules/utility/empty/module.json;
#X obj 400 110 KontrolModule p2 utility/empty;
#X obj 600 110 send loadbang-p2;
#X connect 0 0 2 0;
#X connect 1 0 2 1;
#X connect 2 0 3 0;
#X connect 2 1 4 0;
#X connect 5 0 6 0;
#X connect 6 0 9 0;
#X connect 6 1 7 0;
#X connect 7 0 8 0;
#X restore 318 90 pd p2;
#X obj 395 63 r onotes;
#X obj 453 63 r oencbut;
#X obj 518 63 r oaux;
#X obj 560 63 r oexp;
#X obj 611 63 r ofs;
#X obj 395 85 r octrl;
#N canvas 674 472 946 579 a1-1 0;
#X obj 5 5 r~ inL-a1-1;
#X obj 85 5 r~ inR-a1-1;
#X obj 5 30 modules/sequence/euclid/module a1-1;
#X obj 5 55 s~ outL-a1-1;
#X obj 85 55 s~ outR-a1-1;
#X obj 200 0 r rackloaded;
#X obj 200 15 t b b;
#X msg 200 30 loaddefinitions modules/sequence/euclid/module.json;
#X obj 200 55 KontrolModule a1-1 sequence/euclid;
#X obj 300 55 send loadbang-a1-1;
#X connect 0 0 2 0;
#X connect 1 0 2 1;
#X connect 2 0 3 0;
#X connect 2 1 4 0;
#X connect 5 0 6 0;
#X connect 6 0 9 0;
#X connect 6 1 7 0;
#X connect 7 0 8 0;
#X restore 32 178 pd a1-1;
#N canvas 526 418 1035 347 a1-2 0;
#X obj 5 5 r~ inL-a1-2;
#X obj 55 5 r~ inR-a1-2;
#X obj 5 30 modules/synth/edrum/module a1-2;
#X obj 5 55 s~ outL-a1-2;
#X obj 55 55 s~ outR-a1-2;
#X obj 200 0 r rackloaded;
#X obj 200 15 t b b;
#X msg 200 30 loaddefinitions modules/synth/edrum/module.json;
#X obj 200 55 KontrolModule a1-2 synth/edrum;
#X obj 300 55 send loadbang-a1-2;
#X connect 0 0 2 0;
#X connect 1 0 2 1;
#X connect 2 0 3 0;
#X connect 2 1 4 0;
#X connect 5 0 6 0;
#X connect 6 0 9 0;
#X connect 6 1 7 0;
#X connect 7 0 8 0;
#X restore 32 208 pd a1-2;
#N canvas 714 538 943 317 a1-3 0;
#X obj 10 10 r~ inL-a1-3;
#X obj 110 10 r~ inR-a1-3;
#X obj 10 60 modules/utility/empty/module a1-3;
#X obj 10 110 s~ outL-a1-3;
#X obj 110 110 s~ outR-a1-3;
#X obj 400 1 r rackloaded;
#X obj 400 30 t b b;
#X msg 400 60 loaddefinitions modules/utility/empty/module.json;
#X obj 400 110 KontrolModule a1-3 utility/empty;
#X obj 600 110 send loadbang-a1-3;
#X connect 0 0 2 0;
#X connect 1 0 2 1;
#X connect 2 0 3 0;
#X connect 2 1 4 0;
#X connect 5 0 6 0;
#X connect 6 0 9 0;
#X connect 6 1 7 0;
#X connect 7 0 8 0;
#X restore 32 238 pd a1-3;
#N canvas 714 538 943 317 a1-4 0;
#X obj 10 10 r~ inL-a1-4;
#X obj 110 10 r~ inR-a1-4;
#X obj 10 60 modules/utility/empty/module a1-4;
#X obj 10 110 s~ outL-a1-4;
#X obj 110 110 s~ outR-a1-4;
#X obj 400 1 r rackloaded;
#X obj 400 30 t b b;
#X msg 400 60 loaddefinitions modules/utility/empty/module.json;
#X obj 400 110 KontrolModule a1-4 utility/empty;
#X obj 600 110 send loadbang-a1-4;
#X connect 0 0 2 0;
#X connect 1 0 2 1;
#X connect 2 0 3 0;
#X connect 2 1 4 0;
#X connect 5 0 6 0;
#X connect 6 0 9 0;
#X connect 6 1 7 0;
#X connect 7 0 8 0;
#X restore 32 268 pd a1-4;
#N canvas 714 538 943 317 a2-1 0;
#X obj 10 10 r~ inL-a2-1;
#X obj 110 10 r~ inR-a2-1;
#X obj 10 60 modules/utility/empty/module a2-1;
#X obj 10 110 s~ outL-a2-1;
#X obj 110 110 s~ outR-a2-1;
#X obj 400 1 r rackloaded;
#X obj 400 30 t b b;
#X msg 400 60 loaddefinitions modules/utility/empty/module.json;
#X obj 400 110 KontrolModule a2-1 utility/empty;
#X obj 600 110 send loadbang-a2-1;
#X connect 0 0 2 0;
#X connect 1 0 2 1;
#X connect 2 0 3 0;
#X connect 2 1 4 0;
#X connect 5 0 6 0;
#X connect 6 0 9 0;
#X connect 6 1 7 0;
#X connect 7 0 8 0;
#X restore 108 178 pd a2-1;
#N canvas 714 538 943 317 a2-2 0;
#X obj 10 10 r~ inL-a2-2;
#X obj 110 10 r~ inR-a2-2;
#X obj 10 60 modules/utility/empty/module a2-2;
#X obj 10 110 s~ outL-a2-2;
#X obj 110 110 s~ outR-a2-2;
#X obj 400 1 r rackloaded;
#X obj 400 30 t b b;
#X msg 400 60 loaddefinitions modules/utility/empty/module.json;
#X obj 400 110 KontrolModule a2-2 utility/empty;
#X obj 600 110 send loadbang-a2-2;
#X connect 0 0 2 0;
#X connect 1 0 2 1;
#X connect 2 0 3 0;
#X connect 2 1 4 0;
#X connect 5 0 6 0;
#X connect 6 0 9 0;
#X connect 6 1 7 0;
#X connect 7 0 8 0;
#X restore 108 208 pd a2-2;
#N canvas 714 538 943 317 a2-3 0;
#X obj 10 10 r~ inL-a2-3;
#X obj 110 10 r~ inR-a2-3;
#X obj 10 60 modules/utility/empty/module a2-3;
#X obj 10 110 s~ outL-a2-3;
#X obj 110 110 s~ outR-a2-3;
#X obj 400 1 r rackloaded;
#X obj 400 30 t b b;
#X msg 400 60 loaddefinitions modules/utility/empty/module.json;
#X obj 400 110 KontrolModule a2-3 utility/empty;
#X obj 600 110 send loadbang-a2-3;
#X connect 0 0 2 0;
#X connect 1 0 2 1;
#X connect 2 0 3 0;
#X connect 2 1 4 0;
#X connect 5 0 6 0;
#X connect 6 0 9 0;
#X connect 6 1 7 0;
#X connect 7 0 8 0;
#X restore 108 238 pd a2-3;
#N canvas 714 538 943 317 a2-4 0;
#X obj 10 10 r~ inL-a2-4;
#X obj 110 10 r~ inR-a2-4;
#X obj 10 60 modules/utility/empty/module a2-4;
#X obj 10 110 s~ outL-a2-4;
#X obj 110 110 s~ outR-a2-4;
#X obj 400 1 r rackloaded;
#X obj 400 30 t b b;
#X msg 400 60 loaddefinitions modules/utility/empty/module.json;
#X obj 400 110 KontrolModule a2-4 utility/empty;
#X obj 600 110 send loadbang-a2-4;
#X connect 0 0 2 0;
#X connect 1 0 2 1;
#X connect 2 0 3 0;
#X connect 2 1 4 0;
#X connect 5 0 6 0;
#X connect 6 0 9 0;
#X connect 6 1 7 0;
#X connect 7 0 8 0;
#X restore 108 268 pd a2-4;
#N canvas 714 538 943 317 a3-1 0;
#X obj 10 10 r~ inL-a3-1;
#X obj 110 10 r~ inR-a3-1;
#X obj 10 60 modules/utility/empty/module a3-1;
#X obj 10 110 s~ outL-a3-1;
#X obj 110 110 s~ outR-a3-1;
#X obj 400 1 r rackloaded;
#X obj 400 30 t b b;
#X msg 400 60 loaddefinitions modules/utility/empty/module.json;
#X obj 400 110 KontrolModule a3-1 utility/empty;
#X obj 600 110 send loadbang-a3-1;
#X connect 0 0 2 0;
#X connect 1 0 2 1;
#X connect 2 0 3 0;
#X connect 2 1 4 0;
#X connect 5 0 6 0;
#X connect 6 0 9 0;
#X connect 6 1 7 0;
#X connect 7 0 8 0;
#X restore 184 178 pd a3-1;
#N canvas 714 538 943 317 a3-2 0;
#X obj 10 10 r~ inL-a3-2;
#X obj 110 10 r~ inR-a3-2;
#X obj 10 60 modules/utility/empty/module a3-2;
#X obj 10 110 s~ outL-a3-2;
#X obj 110 110 s~ outR-a3-2;
#X obj 400 1 r rackloaded;
#X obj 400 30 t b b;
#X msg 400 60 loaddefinitions modules/utility/empty/module.json;
#X obj 400 110 KontrolModule a3-2 utility/empty;
#X obj 600 110 send loadbang-a3-2;
#X connect 0 0 2 0;
#X connect 1 0 2 1;
#X connect 2 0 3 0;
#X connect 2 1 4 0;
#X connect 5 0 6 0;
#X connect 6 0 9 0;
#X connect 6 1 7 0;
#X connect 7 0 8 0;
#X restore 184 208 pd a3-2;
#N canvas 714 538 943 317 a3-3 0;
#X obj 10 10 r~ inL-a3-3;
#X obj 110 10 r~ inR-a3-3;
#X obj 10 60 modules/utility/empty/module a3-3;
#X obj 10 110 s~ outL-a3-3;
#X obj 110 110 s~ outR-a3-3;
#X obj 400 1 r rackloaded;
#X obj 400 30 t b b;
#X msg 400 60 loaddefinitions modules/utility/empty/module.json;
#X obj 400 110 KontrolModule a3-3 utility/empty;
#X obj 600 110 send loadbang-a3-3;
#X connect 0 0 2 0;
#X connect 1 0 2 1;
#X connect 2 0 3 0;
#X connect 2 1 4 0;
#X connect 5 0 6 0;
#X connect 6 0 9 0;
#X connect 6 1 7 0;
#X connect 7 0 8 0;
#X restore 184 238 pd a3-3;
#N canvas 714 538 943 317 a3-4 0;
#X obj 10 10 r~ inL-a3-4;
#X obj 110 10 r~ inR-a3-4;
#X obj 10 60 modules/utility/empty/module a3-4;
#X obj 10 110 s~ outL-a3-4;
#X obj 110 110 s~ outR-a3-4;
#X obj 400 1 r rackloaded;
#X obj 400 30 t b b;
#X msg 400 60 loaddefinitions modules/utility/empty/module.json;
#X obj 400 110 KontrolModule a3-4 utility/empty;
#X obj 600 110 send loadbang-a3-4;
#X connect 0 0 2 0;
#X connect 1 0 2 1;
#X connect 2 0 3 0;
#X connect 2 1 4 0;
#X connect 5 0 6 0;
#X connect 6 0 9 0;
#X connect 6 1 7 0;
#X connect 7 0 8 0;
#X restore 184 268 pd a3-4;
#N canvas 714 538 943 317 a4-1 0;
#X obj 10 10 r~ inL-a4-1;
#X obj 110 10 r~ inR-a4-1;
#X obj 10 60 modules/utility/empty/module a4-1;
#X obj 10 110 s~ outL-a4-1;
#X obj 110 110 s~ outR-a4-1;
#X obj 400 1 r rackloaded;
#X obj 400 30 t b b;
#X msg 400 60 loaddefinitions modules/utility/empty/module.json;
#X obj 400 110 KontrolModule a4-1 utility/empty;
#X obj 600 110 send loadbang-a4-1;
#X connect 0 0 2 0;
#X connect 1 0 2 1;
#X connect 2 0 3 0;
#X connect 2 1 4 0;
#X connect 5 0 6 0;
#X connect 6 0 9 0;
#X connect 6 1 7 0;
#X connect 7 0 8 0;
#X restore 260 178 pd a4-1;
#N canvas 714 538 943 317 a4-2 0;
#X obj 10 10 r~ inL-a4-2;
#X obj 110 10 r~ inR-a4-2;
#X obj 10 60 modules/utility/empty/module a4-2;
#X obj 10 110 s~ outL-a4-2;
#X obj 110 110 s~ outR-a4-2;
#X obj 400 1 r rackloaded;
#X obj 400 30 t b b;
#X msg 400 60 loaddefinitions modules/utility/empty/module.json;
#X obj 400 110 KontrolModule a4-2 utility/empty;
#X obj 600 110 send loadbang-a4-2;
#X connect 0 0 2 0;
#X connect 1 0 2 1;
#X connect 2 0 3 0;
#X connect 2 1 4 0;
#X connect 5 0 6 0;
#X connect 6 0 9 0;
#X connect 6 1 7 0;
#X connect 7 0 8 0;
#X restore 260 208 pd a4-2;
#N canvas 714 538 943 317 a4-3 0;
#X obj 10 10 r~ inL-a4-3;
#X obj 110 10 r~ inR-a4-3;
#X obj 10 60 modules/utility/empty/module a4-3;
#X obj 10 110 s~ outL-a4-3;
#X obj 110 110 s~ outR-a4-3;
#X obj 400 1 r rackloaded;
#X obj 400 30 t b b;
#X msg 400 60 loaddefinitions modules/utility/empty/module.json;
#X obj 400 110 KontrolModule a4-3 utility/empty;
#X obj 600 110 send loadbang-a4-3;
#X connect 0 0 2 0;
#X connect 1 0 2 1;
#X connect 2 0 3 0;
#X connect 2 1 4 0;
#X connect 5 0 6 0;
#X connect 6 0 9 0;
#X connect 6 1 7 0;
#X connect 7 0 8 0;
#X restore 260 238 pd a4-3;
#N canvas 714 538 943 317 a4-4 0;
#X obj 10 10 r~ inL-a4-4;
#X obj 110 10 r~ inR-a4-4;
#X obj 10 60 modules/utility/empty/module a4-4;
#X obj 10 110 s~ outL-a4-4;
#X obj 110 110 s~ outR-a4-4;
#X obj 400 1 r rackloaded;
#X obj 400 30 t b b;
#X msg 400 60 loaddefinitions modules/utility/empty/module.json;
#X obj 400 110 KontrolModule a4-4 utility/empty;
#X obj 600 110 send loadbang-a4-4;
#X connect 0 0 2 0;
#X connect 1 0 2 1;
#X connect 2 0 3 0;
#X connect 2 1 4 0;
#X connect 5 0 6 0;
#X connect 6 0 9 0;
#X connect 6 1 7 0;
#X connect 7 0 8 0;
#X restore 260 268 pd a4-4;
#N canvas 714 538 943 317 b1-1 0;
#X obj 10 10 r~ inL-b1-1;
#X obj 110 10 r~ inR-b1-1;
#X obj 10 60 modules/utility/empty/module b1-1;
#X obj 10 110 s~ outL-b1-1;
#X obj 110 110 s~ outR-b1-1;
#X obj 400 1 r rackloaded;
#X obj 400 30 t b b;
#X msg 400 60 loaddefinitions modules/utility/empty/module.json;
#X obj 400 110 KontrolModule b1-1 utility/empty;
#X obj 600 110 send loadbang-b1-1;
#X connect 0 0 2 0;
#X connect 1 0 2 1;
#X connect 2 0 3 0;
#X connect 2 1 4 0;
#X connect 5 0 6 0;
#X connect 6 0 9 0;
#X connect 6 1 7 0;
#X connect 7 0 8 0;
#X restore 336 178 pd b1-1;
#N canvas 714 538 943 317 b1-2 0;
#X obj 10 10 r~ inL-b1-2;
#X obj 110 10 r~ inR-b1-2;
#X obj 10 60 modules/utility/empty/module b1-2;
#X obj 10 110 s~ outL-b1-2;
#X obj 110 110 s~ outR-b1-2;
#X obj 400 1 r rackloaded;
#X obj 400 30 t b b;
#X msg 400 60 loaddefinitions modules/utility/empty/module.json;
#X obj 400 110 KontrolModule b1-2 utility/empty;
#X obj 600 110 send loadbang-b1-2;
#X connect 0 0 2 0;
#X connect 1 0 2 1;
#X connect 2 0 3 0;
#X connect 2 1 4 0;
#X connect 5 0 6 0;
#X connect 6 0 9 0;
#X connect 6 1 7 0;
#X connect 7 0 8 0;
#X restore 336 208 pd b1-2;
#N canvas 714 538 943 317 b1-3 0;
#X obj 10 10 r~ inL-b1-3;
#X obj 110 10 r~ inR-b1-3;
#X obj 10 60 modules/utility/empty/module b1-3;
#X obj 10 110 s~ outL-b1-3;
#X obj 110 110 s~ outR-b1-3;
#X obj 400 1 r rackloaded;
#X obj 400 30 t b b;
#X msg 400 60 loaddefinitions modules/utility/empty/module.json;
#X obj 400 110 KontrolModule b1-3 utility/empty;
#X obj 600 110 send loadbang-b1-3;
#X connect 0 0 2 0;
#X connect 1 0 2 1;
#X connect 2 0 3 0;
#X connect 2 1 4 0;
#X connect 5 0 6 0;
#X connect 6 0 9 0;
#X connect 6 1 7 0;
#X connect 7 0 8 0;
#X restore 336 238 pd b1-3;
#N canvas 714 538 943 317 b1-4 0;
#X obj 10 10 r~ inL-b1-4;
#X obj 110 10 r~ inR-b1-4;
#X obj 10 60 modules/utility/empty/module b1-4;
#X obj 10 110 s~ outL-b1-4;
#X obj 110 110 s~ outR-b1-4;
#X obj 400 1 r rackloaded;
#X obj 400 30 t b b;
#X msg 400 60 loaddefinitions modules/utility/empty/module.json;
#X obj 400 110 KontrolModule b1-4 utility/empty;
#X obj 600 110 send loadbang-b1-4;
#X connect 0 0 2 0;
#X connect 1 0 2 1;
#X connect 2 0 3 0;
#X connect 2 1 4 0;
#X connect 5 0 6 0;
#X connect 6 0 9 0;
#X connect 6 1 7 0;
#X connect 7 0 8 0;
#X restore 336 268 pd b1-4;
#N canvas 714 538 943 317 b2-1 0;
#X obj 10 10 r~ inL-b2-1;
#X obj 110 10 r~ inR-b2-1;
#X obj 10 60 modules/utility/empty/module b2-1;
#X obj 10 110 s~ outL-b2-1;
#X obj 110 110 s~ outR-b2-1;
#X obj 400 1 r rackloaded;
#X obj 400 30 t b b;
#X msg 400 60 loaddefinitions modules/utility/empty/module.json;
#X obj 400 110 KontrolModule b2-1 utility/empty;
#X obj 600 110 send loadbang-b2-1;
#X connect 0 0 2 0;
#X connect 1 0 2 1;
#X connect 2 0 3 0;
#X connect 2 1 4 0;
#X connect 5 0 6 0;
#X connect 6 0 9 0;
#X connect 6 1 7 0;
#X connect 7 0 8 0;
#X restore 412 178 pd b2-1;
#N canvas 714 538 943 317 b2-2 0;
#X obj 10 10 r~ inL-b2-2;
#X obj 110 10 r~ inR-b2-2;
#X obj 10 60 modules/utility/empty/module b2-2;
#X obj 10 110 s~ outL-b2-2;
#X obj 110 110 s~ outR-b2-2;
#X obj 400 1 r rackloaded;
#X obj 400 30 t b b;
#X msg 400 60 loaddefinitions modules/utility/empty/module.json;
#X obj 400 110 KontrolModule b2-2 utility/empty;
#X obj 600 110 send loadbang-b2-2;
#X connect 0 0 2 0;
#X connect 1 0 2 1;
#X connect 2 0 3 0;
#X connect 2 1 4 0;
#X connect 5 0 6 0;
#X connect 6 0 9 0;
#X connect 6 1 7 0;
#X connect 7 0 8 0;
#X restore 412 208 pd b2-2;
#N canvas 714 538 943 317 b2-3 0;
#X obj 10 10 r~ inL-b2-3;
#X obj 110 10 r~ inR-b2-3;
#X obj 10 60 modules/utility/empty/module b2-3;
#X obj 10 110 s~ outL-b2-3;
#X obj 110 110 s~ outR-b2-3;
#X obj 400 1 r rackloaded;
#X obj 400 30 t b b;
#X msg 400 60 loaddefinitions modules/utility/empty/module.json;
#X obj 400 110 KontrolModule b2-3 utility/empty;
#X obj 600 110 send loadbang-b2-3;
#X connect 0 0 2 0;
#X connect 1 0 2 1;
#X connect 2 0 3 0;
#X connect 2 1 4 0;
#X connect 5 0 6 0;
#X connect 6 0 9 0;
#X connect 6 1 7 0;
#X connect 7 0 8 0;
#X restore 412 238 pd b2-3;
#N canvas 714 538 943 317 b2-4 0;
#X obj 10 10 r~ inL-b2-4;
#X obj 110 10 r~ inR-b2-4;
#X obj 10 60 modules/utility/empty/module b2-4;
#X obj 10 110 s~ outL-b2-4;
#X obj 110 110 s~ outR-b2-4;
#X obj 400 1 r rackloaded;
#X obj 400 30 t b b;
#X msg 400 60 loaddefinitions modules/utility/empty/module.json;
#X obj 400 110 KontrolModule b2-4 utility/empty;
#X obj 600 110 send loadbang-b2-4;
#X connect 0 0 2 0;
#X connect 1 0 2 1;
#X connect 2 0 3 0;
#X connect 2 1 4 0;
#X connect 5 0 6 0;
#X connect 6 0 9 0;
#X connect 6 1 7 0;
#X connect 7 0 8 0;
#X restore 412 268 pd b2-4;
#N canvas 714 538 943 317 b3-1 0;
#X obj 10 10 r~ inL-b3-1;
#X obj 110 10 r~ inR-b3-1;
#X obj 10 60 modules/utility/empty/module b3-1;
#X obj 10 110 s~ outL-b3-1;
#X obj 110 110 s~ outR-b3-1;
#X obj 400 1 r rackloaded;
#X obj 400 30 t b b;
#X msg 400 60 loaddefinitions modules/utility/empty/module.json;
#X obj 400 110 KontrolModule b3-1 utility/empty;
#X obj 600 110 send loadbang-b3-1;
#X connect 0 0 2 0;
#X connect 1 0 2 1;
#X connect 2 0 3 0;
#X connect 2 1 4 0;
#X connect 5 0 6 0;
#X connect 6 0 9 0;
#X connect 6 1 7 0;
#X connect 7 0 8 0;
#X restore 488 178 pd b3-1;
#N canvas 714 538 943 317 b3-2 0;
#X obj 10 10 r~ inL-b3-2;
#X obj 110 10 r~ inR-b3-2;
#X obj 10 60 modules/utility/empty/module b3-2;
#X obj 10 110 s~ outL-b3-2;
#X obj 110 110 s~ outR-b3-2;
#X obj 400 1 r rackloaded;
#X obj 400 30 t b b;
#X msg 400 60 loaddefinitions modules/utility/empty/module.json;
#X obj 400 110 KontrolModule b3-2 utility/empty;
#X obj 600 110 send loadbang-b3-2;
#X connect 0 0 2 0;
#X connect 1 0 2 1;
#X connect 2 0 3 0;
#X connect 2 1 4 0;
#X connect 5 0 6 0;
#X connect 6 0 9 0;
#X connect 6 1 7 0;
#X connect 7 0 8 0;
#X restore 488 208 pd b3-2;
#N canvas 714 538 943 317 b3-3 0;
#X obj 10 10 r~ inL-b3-3;
#X obj 110 10 r~ inR-b3-3;
#X obj 10 60 modules/utility/empty/module b3-3;
#X obj 10 110 s~ outL-b3-3;
#X obj 110 110 s~ outR-b3-3;
#X obj 400 1 r rackloaded;
#X obj 400 30 t b b;
#X msg 400 60 loaddefinitions modules/utility/empty/module.json;
#X obj 400 110 KontrolModule b3-3 utility/empty;
#X obj 600 110 send loadbang-b3-3;
#X connect 0 0 2 0;
#X connect 1 0 2 1;
#X connect 2 0 3 0;
#X connect 2 1 4 0;
#X connect 5 0 6 0;
#X connect 6 0 9 0;
#X connect 6 1 7 0;
#X connect 7 0 8 0;
#X restore 488 238 pd b3-3;
#N canvas 714 538 943 317 b3-4 0;
#X obj 10 10 r~ inL-b3-4;
#X obj 110 10 r~ inR-b3-4;
#X obj 10 60 modules/utility/empty/module b3-4;
#X obj 10 110 s~ outL-b3-4;
#X obj 110 110 s~ outR-b3-4;
#X obj 400 1 r rackloaded;
#X obj 400 30 t b b;
#X msg 400 60 loaddefinitions modules/utility/empty/module.json;
#X obj 400 110 KontrolModule b3-4 utility/empty;
#X obj 600 110 send loadbang-b3-4;
#X connect 0 0 2 0;
#X connect 1 0 2 1;
#X connect 2 0 3 0;
#X connect 2 1 4 0;
#X connect 5 0 6 0;
#X connect 6 0 9 0;
#X connect 6 1 7 0;
#X connect 7 0 8 0;
#X restore 488 268 pd b3-4;
#N canvas 714 538 943 317 b4-1 0;
#X obj 10 10 r~ inL-b4-1;
#X obj 110 10 r~ inR-b4-1;
#X obj 10 60 modules/utility/empty/module b4-1;
#X obj 10 110 s~ outL-b4-1;
#X obj 110 110 s~ outR-b4-1;
#X obj 400 1 r rackloaded;
#X obj 400 30 t b b;
#X msg 400 60 loaddefinitions modules/utility/empty/module.json;
#X obj 400 110 KontrolModule b4-1 utility/empty;
#X obj 600 110 send loadbang-b4-1;
#X connect 0 0 2 0;
#X connect 1 0 2 1;
#X connect 2 0 3 0;
#X connect 2 1 4 0;
#X connect 5 0 6 0;
#X connect 6 0 9 0;
#X connect 6 1 7 0;
#X connect 7 0 8 0;
#X restore 564 178 pd b4-1;
#N canvas 714 538 943 317 b4-2 0;
#X obj 10 10 r~ inL-b4-2;
#X obj 110 10 r~ inR-b4-2;
#X obj 10 60 modules/utility/empty/module b4-2;
#X obj 10 110 s~ outL-b4-2;
#X obj 110 110 s~ outR-b4-2;
#X obj 400 1 r rackloaded;
#X obj 400 30 t b b;
#X msg 400 60 loaddefinitions modules/utility/empty/module.json;
#X obj 400 110 KontrolModule b4-2 utility/empty;
#X obj 600 110 send loadbang-b4-2;
#X connect 0 0 2 0;
#X connect 1 0 2 1;
#X connect 2 0 3 0;
#X connect 2 1 4 0;
#X connect 5 0 6 0;
#X connect 6 0 9 0;
#X connect 6 1 7 0;
#X connect 7 0 8 0;
#X restore 564 208 pd b4-2;
#N canvas 714 538 943 317 b4-3 0;
#X obj 10 10 r~ inL-b4-3;
#X obj 110 10 r~ inR-b4-3;
#X obj 10 60 modules/utility/empty/module b4-3;
#X obj 10 110 s~ outL-b4-3;
#X obj 110 110 s~ outR-b4-3;
#X obj 400 1 r rackloaded;
#X obj 400 30 t b b;
#X msg 400 60 loaddefinitions modules/utility/empty/module.json;
#X obj 400 110 KontrolModule b4-3 utility/empty;
#X obj 600 110 send loadbang-b4-3;
#X connect 0 0 2 0;
#X connect 1 0 2 1;
#X connect 2 0 3 0;
#X connect 2 1 4 0;
#X connect 5 0 6 0;
#X connect 6 0 9 0;
#X connect 6 1 7 0;
#X connect 7 0 8 0;
#X restore 564 238 pd b4-3;
#N canvas 714 538 943 317 b4-4 0;
#X obj 10 10 r~ inL-b4-4;
#X obj 110 10 r~ inR-b4-4;
#X obj 10 60 modules/utility/empty/module b4-4;
#X obj 10 110 s~ outL-b4-4;
#X obj 110 110 s~ outR-b4-4;
#X obj 400 1 r rackloaded;
#X obj 400 30 t b b;
#X msg 400 60 loaddefinitions modules/utility/empty/module.json;
#X obj 400 110 KontrolModule b4-4 utility/empty;
#X obj 600 110 send loadbang-b4-4;
#X connect 0 0 2 0;
#X connect 1 0 2 1;
#X connect 2 0 3 0;
#X connect 2 1 4 0;
#X connect 5 0 6 0;
#X connect 6 0 9 0;
#X connect 6 1 7 0;
#X connect 7 0 8 0;
#X restore 564 268 pd b4-4;
#N canvas 714 538 943 317 c1-1 0;
#X obj 10 10 r~ inL-c1-1;
#X obj 110 10 r~ inR-c1-1;
#X obj 10 60 modules/utility/empty/module c1-1;
#X obj 10 110 s~ outL-c1-1;
#X obj 110 110 s~ outR-c1-1;
#X obj 400 1 r rackloaded;
#X obj 400 30 t b b;
#X msg 400 60 loaddefinitions modules/utility/empty/module.json;
#X obj 400 110 KontrolModule c1-1 utility/empty;
#X obj 600 110 send loadbang-c1-1;
#X connect 0 0 2 0;
#X connect 1 0 2 1;
#X connect 2 0 3 0;
#X connect 2 1 4 0;
#X connect 5 0 6 0;
#X connect 6 0 9 0;
#X connect 6 1 7 0;
#X connect 7 0 8 0;
#X restore 640 178 pd c1-1;
#N canvas 714 538 943 317 c1-2 0;
#X obj 10 10 r~ inL-c1-2;
#X obj 110 10 r~ inR-c1-2;
#X obj 10 60 modules/utility/empty/module c1-2;
#X obj 10 110 s~ outL-c1-2;
#X obj 110 110 s~ outR-c1-2;
#X obj 400 1 r rackloaded;
#X obj 400 30 t b b;
#X msg 400 60 loaddefinitions modules/utility/empty/module.json;
#X obj 400 110 KontrolModule c1-2 utility/empty;
#X obj 600 110 send loadbang-c1-2;
#X connect 0 0 2 0;
#X connect 1 0 2 1;
#X connect 2 0 3 0;
#X connect 2 1 4 0;
#X connect 5 0 6 0;
#X connect 6 0 9 0;
#X connect 6 1 7 0;
#X connect 7 0 8 0;
#X restore 640 208 pd c1-2;
#N canvas 714 538 943 317 c1-3 0;
#X obj 10 10 r~ inL-c1-3;
#X obj 110 10 r~ inR-c1-3;
#X obj 10 60 modules/utility/empty/module c1-3;
#X obj 10 110 s~ outL-c1-3;
#X obj 110 110 s~ outR-c1-3;
#X obj 400 1 r rackloaded;
#X obj 400 30 t b b;
#X msg 400 60 loaddefinitions modules/utility/empty/module.json;
#X obj 400 110 KontrolModule c1-3 utility/empty;
#X obj 600 110 send loadbang-c1-3;
#X connect 0 0 2 0;
#X connect 1 0 2 1;
#X connect 2 0 3 0;
#X connect 2 1 4 0;
#X connect 5 0 6 0;
#X connect 6 0 9 0;
#X connect 6 1 7 0;
#X connect 7 0 8 0;
#X restore 640 238 pd c1-3;
#N canvas 714 538 943 317 c1-4 0;
#X obj 10 10 r~ inL-c1-4;
#X obj 110 10 r~ inR-c1-4;
#X obj 10 60 modules/utility/empty/module c1-4;
#X obj 10 110 s~ outL-c1-4;
#X obj 110 110 s~ outR-c1-4;
#X obj 400 1 r rackloaded;
#X obj 400 30 t b b;
#X msg 400 60 loaddefinitions modules/utility/empty/module.json;
#X obj 400 110 KontrolModule c1-4 utility/empty;
#X obj 600 110 send loadbang-c1-4;
#X connect 0 0 2 0;
#X connect 1 0 2 1;
#X connect 2 0 3 0;
#X connect 2 1 4 0;
#X connect 5 0 6 0;
#X connect 6 0 9 0;
#X connect 6 1 7 0;
#X connect 7 0 8 0;
#X restore 640 268 pd c1-4;
#N canvas 714 538 943 317 c2-1 0;
#X obj 10 10 r~ inL-c2-1;
#X obj 110 10 r~ inR-c2-1;
#X obj 10 60 modules/utility/empty/module c2-1;
#X obj 10 110 s~ outL-c2-1;
#X obj 110 110 s~ outR-c2-1;
#X obj 400 1 r rackloaded;
#X obj 400 30 t b b;
#X msg 400 60 loaddefinitions modules/utility/empty/module.json;
#X obj 400 110 KontrolModule c2-1 utility/empty;
#X obj 600 110 send loadbang-c2-1;
#X connect 0 0 2 0;
#X connect 1 0 2 1;
#X connect 2 0 3 0;
#X connect 2 1 4 0;
#X connect 5 0 6 0;
#X connect 6 0 9 0;
#X connect 6 1 7 0;
#X connect 7 0 8 0;
#X restore 716 178 pd c2-1;
#N canvas 714 538 943 317 c2-2 0;
#X obj 10 10 r~ inL-c2-2;
#X obj 110 10 r~ inR-c2-2;
#X obj 10 60 modules/utility/empty/module c2-2;
#X obj 10 110 s~ outL-c2-2;
#X obj 110 110 s~ outR-c2-2;
#X obj 400 1 r rackloaded;
#X obj 400 30 t b b;
#X msg 400 60 loaddefinitions modules/utility/empty/module.json;
#X obj 400 110 KontrolModule c2-2 utility/empty;
#X obj 600 110 send loadbang-c2-2;
#X connect 0 0 2 0;
#X connect 1 0 2 1;
#X connect 2 0 3 0;
#X connect 2 1 4 0;
#X connect 5 0 6 0;
#X connect 6 0 9 0;
#X connect 6 1 7 0;
#X connect 7 0 8 0;
#X restore 716 208 pd c2-2;
#N canvas 714 538 943 317 c2-3 0;
#X obj 10 10 r~ inL-c2-3;
#X obj 110 10 r~ inR-c2-3;
#X obj 10 60 modules/utility/empty/module c2-3;
#X obj 10 110 s~ outL-c2-3;
#X obj 110 110 s~ outR-c2-3;
#X obj 400 1 r rackloaded;
#X obj 400 30 t b b;
#X msg 400 60 loaddefinitions modules/utility/empty/module.json;
#X obj 400 110 KontrolModule c2-3 utility/empty;
#X obj 600 110 send loadbang-c2-3;
#X connect 0 0 2 0;
#X connect 1 0 2 1;
#X connect 2 0 3 0;
#X connect 2 1 4 0;
#X connect 5 0 6 0;
#X connect 6 0 9 0;
#X connect 6 1 7 0;
#X connect 7 0 8 0;
#X restore 716 238 pd c2-3;
#N canvas 714 538 943 317 c2-4 0;
#X obj 10 10 r~ inL-c2-4;
#X obj 110 10 r~ inR-c2-4;
#X obj 10 60 modules/utility/empty/module c2-4;
#X obj 10 110 s~ outL-c2-4;
#X obj 110 110 s~ outR-c2-4;
#X obj 400 1 r rackloaded;
#X obj 400 30 t b b;
#X msg 400 60 loaddefinitions modules/utility/empty/module.json;
#X obj 400 110 KontrolModule c2-4 utility/empty;
#X obj 600 110 send loadbang-c2-4;
#X connect 0 0 2 0;
#X connect 1 0 2 1;
#X connect 2 0 3 0;
#X connect 2 1 4 0;
#X connect 5 0 6 0;
#X connect 6 0 9 0;
#X connect 6 1 7 0;
#X connect 7 0 8 0;
#X restore 716 268 pd c2-4;
#N canvas 714 538 943 317 c3-1 0;
#X obj 10 10 r~ inL-c3-1;
#X obj 110 10 r~ inR-c3-1;
#X obj 10 60 modules/utility/empty/module c3-1;
#X obj 10 110 s~ outL-c3-1;
#X obj 110 110 s~ outR-c3-1;
#X obj 400 1 r rackloaded;
#X obj 400 30 t b b;
#X msg 400 60 loaddefinitions modules/utility/empty/module.json;
#X obj 400 110 KontrolModule c3-1 utility/empty;
#X obj 600 110 send loadbang-c3-1;
#X connect 0 0 2 0;
#X connect 1 0 2 1;
#X connect 2 0 3 0;
#X connect 2 1 4 0;
#X connect 5 0 6 0;
#X connect 6 0 9 0;
#X connect 6 1 7 0;
#X connect 7 0 8 0;
#X restore 792 178 pd c3-1;
#N canvas 714 538 943 317 c3-2 0;
#X obj 10 10 r~ inL-c3-2;
#X obj 110 10 r~ inR-c3-2;
#X obj 10 60 modules/utility/empty/module c3-2;
#X obj 10 110 s~ outL-c3-2;
#X obj 110 110 s~ outR-c3-2;
#X obj 400 1 r rackloaded;
#X obj 400 30 t b b;
#X msg 400 60 loaddefinitions modules/utility/empty/module.json;
#X obj 400 110 KontrolModule c3-2 utility/empty;
#X obj 600 110 send loadbang-c3-2;
#X connect 0 0 2 0;
#X connect 1 0 2 1;
#X connect 2 0 3 0;
#X connect 2 1 4 0;
#X connect 5 0 6 0;
#X connect 6 0 9 0;
#X connect 6 1 7 0;
#X connect 7 0 8 0;
#X restore 792 208 pd c3-2;
#N canvas 714 538 943 317 c3-3 0;
#X obj 10 10 r~ inL-c3-3;
#X obj 110 10 r~ inR-c3-3;
#X obj 10 60 modules/utility/empty/module c3-3;
#X obj 10 110 s~ outL-c3-3;
#X obj 110 110 s~ outR-c3-3;
#X obj 400 1 r rackloaded;
#X obj 400 30 t b b;
#X msg 400 60 loaddefinitions modules/utility/empty/module.json;
#X obj 400 110 KontrolModule c3-3 utility/empty;
#X obj 600 110 send loadbang-c3-3;
#X connect 0 0 2 0;
#X connect 1 0 2 1;
#X connect 2 0 3 0;
#X connect 2 1 4 0;
#X connect 5 0 6 0;
#X connect 6 0 9 0;
#X connect 6 1 7 0;
#X connect 7 0 8 0;
#X restore 792 238 pd c3-3;
#N canvas 714 538 943 317 c3-4 0;
#X obj 10 10 r~ inL-c3-4;
#X obj 110 10 r~ inR-c3-4;
#X obj 10 60 modules/utility/empty/module c3-4;
#X obj 10 110 s~ outL-c3-4;
#X obj 110 110 s~ outR-c3-4;
#X obj 400 1 r rackloaded;
#X obj 400 30 t b b;
#X msg 400 60 loaddefinitions modules/utility/empty/module.json;
#X obj 400 110 KontrolModule c3-4 utility/empty;
#X obj 600 110 send loadbang-c3-4;
#X connect 0 0 2 0;
#X connect 1 0 2 1;
#X connect 2 0 3 0;
#X connect 2 1 4 0;
#X connect 5 0 6 0;
#X connect 6 0 9 0;
#X connect 6 1 7 0;
#X connect 7 0 8 0;
#X restore 792 268 pd c3-4;
#N canvas 714 538 943 317 c4-1 0;
#X obj 10 10 r~ inL-c4-1;
#X obj 110 10 r~ inR-c4-1;
#X obj 10 60 modules/utility/empty/module c4-1;
#X obj 10 110 s~ outL-c4-1;
#X obj 110 110 s~ outR-c4-1;
#X obj 400 1 r rackloaded;
#X obj 400 30 t b b;
#X msg 400 60 loaddefinitions modules/utility/empty/module.json;
#X obj 400 110 KontrolModule c4-1 utility/empty;
#X obj 600 110 send loadbang-c4-1;
#X connect 0 0 2 0;
#X connect 1 0 2 1;
#X connect 2 0 3 0;
#X connect 2 1 4 0;
#X connect 5 0 6 0;
#X connect 6 0 9 0;
#X connect 6 1 7 0;
#X connect 7 0 8 0;
#X restore 868 178 pd c4-1;
#N canvas 714 538 943 317 c4-2 0;
#X obj 10 10 r~ inL-c4-2;
#X obj 110 10 r~ inR-c4-2;
#X obj 10 60 modules/utility/empty/module c4-2;
#X obj 10 110 s~ outL-c4-2;
#X obj 110 110 s~ outR-c4-2;
#X obj 400 1 r rackloaded;
#X obj 400 30 t b b;
#X msg 400 60 loaddefinitions modules/utility/empty/module.json;
#X obj 400 110 KontrolModule c4-2 utility/empty;
#X obj 600 110 send loadbang-c4-2;
#X connect 0 0 2 0;
#X connect 1 0 2 1;
#X connect 2 0 3 0;
#X connect 2 1 4 0;
#X connect 5 0 6 0;
#X connect 6 0 9 0;
#X connect 6 1 7 0;
#X connect 7 0 8 0;
#X restore 868 208 pd c4-2;
#N canvas 714 538 943 317 c4-3 0;
#X obj 10 10 r~ inL-c4-3;
#X obj 110 10 r~ inR-c4-3;
#X obj 10 60 modules/utility/empty/module c4-3;
#X obj 10 110 s~ outL-c4-3;
#X obj 110 110 s~ outR-c4-3;
#X obj 400 1 r rackloaded;
#X obj 400 30 t b b;
#X msg 400 60 loaddefinitions modules/utility/empty/module.json;
#X obj 400 110 KontrolModule c4-3 utility/empty;
#X obj 600 110 send loadbang-c4-3;
#X connect 0 0 2 0;
#X connect 1 0 2 1;
#X connect 2 0 3 0;
#X connect 2 1 4 0;
#X connect 5 0 6 0;
#X connect 6 0 9 0;
#X connect 6 1 7 0;
#X connect 7 0 8 0;
#X restore 868 238 pd c4-3;
#N canvas 714 538 943 317 c4-4 0;
#X obj 10 10 r~ inL-c4-4;
#X obj 110 10 r~ inR-c4-4;
#X obj 10 60 modules/utility/empty/module c4-4;
#X obj 10 110 s~ outL-c4-4;
#X obj 110 110 s~ outR-c4-4;
#X obj 400 1 r rackloaded;
#X obj 400 30 t b b;
#X msg 400 60 loaddefinitions modules/utility/empty/module.json;
#X obj 400 110 KontrolModule c4-4 utility/empty;
#X obj 600 110 send loadbang-c4-4;
#X connect 0 0 2 0;
#X connect 1 0 2 1;
#X connect 2 0 3 0;
#X connect 2 1 4 0;
#X connect 5 0 6 0;
#X connect 6 0 9 0;
#X connect 6 1 7 0;
#X connect 7 0 8 0;
#X restore 868 268 pd c4-4;
#N canvas 714 538 943 317 d1-1 0;
#X obj 10 10 r~ inL-d1-1;
#X obj 110 10 r~ inR-d1-1;
#X obj 10 60 modules/utility/empty/module d1-1;
#X obj 10 110 s~ outL-d1-1;
#X obj 110 110 s~ outR-d1-1;
#X obj 400 1 r rackloaded;
#X obj 400 30 t b b;
#X msg 400 60 loaddefinitions modules/utility/empty/module.json;
#X obj 400 110 KontrolModule d1-1 utility/empty;
#X obj 600 110 send loadbang-d1-1;
#X connect 0 0 2 0;
#X connect 1 0 2 1;
#X connect 2 0 3 0;
#X connect 2 1 4 0;
#X connect 5 0 6 0;
#X connect 6 0 9 0;
#X connect 6 1 7 0;
#X connect 7 0 8 0;
#X restore 944 178 pd d1-1;
#N canvas 714 538 943 317 d1-2 0;
#X obj 10 10 r~ inL-d1-2;
#X obj 110 10 r~ inR-d1-2;
#X obj 10 60 modules/utility/empty/module d1-2;
#X obj 10 110 s~ outL-d1-2;
#X obj 110 110 s~ outR-d1-2;
#X obj 400 1 r rackloaded;
#X obj 400 30 t b b;
#X msg 400 60 loaddefinitions modules/utility/empty/module.json;
#X obj 400 110 KontrolModule d1-2 utility/empty;
#X obj 600 110 send loadbang-d1-2;
#X connect 0 0 2 0;
#X connect 1 0 2 1;
#X connect 2 0 3 0;
#X connect 2 1 4 0;
#X connect 5 0 6 0;
#X connect 6 0 9 0;
#X connect 6 1 7 0;
#X connect 7 0 8 0;
#X restore 944 208 pd d1-2;
#N canvas 714 538 943 317 d1-3 0;
#X obj 10 10 r~ inL-d1-3;
#X obj 110 10 r~ inR-d1-3;
#X obj 10 60 modules/utility/empty/module d1-3;
#X obj 10 110 s~ outL-d1-3;
#X obj 110 110 s~ outR-d1-3;
#X obj 400 1 r rackloaded;
#X obj 400 30 t b b;
#X msg 400 60 loaddefinitions modules/utility/empty/module.json;
#X obj 400 110 KontrolModule d1-3 utility/empty;
#X obj 600 110 send loadbang-d1-3;
#X connect 0 0 2 0;
#X connect 1 0 2 1;
#X connect 2 0 3 0;
#X connect 2 1 4 0;
#X connect 5 0 6 0;
#X connect 6 0 9 0;
#X connect 6 1 7 0;
#X connect 7 0 8 0;
#X restore 944 238 pd d1-3;
#N canvas 714 538 943 317 d1-4 0;
#X obj 10 10 r~ inL-d1-4;
#X obj 110 10 r~ inR-d1-4;
#X obj 10 60 modules/utility/empty/module d1-4;
#X obj 10 110 s~ outL-d1-4;
#X obj 110 110 s~ outR-d1-4;
#X obj 400 1 r rackloaded;
#X obj 400 30 t b b;
#X msg 400 60 loaddefinitions modules/utility/empty/module.json;
#X obj 400 110 KontrolModule d1-4 utility/empty;
#X obj 600 110 send loadbang-d1-4;
#X connect 0 0 2 0;
#X connect 1 0 2 1;
#X connect 2 0 3 0;
#X connect 2 1 4 0;
#X connect 5 0 6 0;
#X connect 6 0 9 0;
#X connect 6 1 7 0;
#X connect 7 0 8 0;
#X restore 944 268 pd d1-4;
#N canvas 714 538 943 317 d2-1 0;
#X obj 10 10 r~ inL-d2-1;
#X obj 110 10 r~ inR-d2-1;
#X obj 10 60 modules/utility/empty/module d2-1;
#X obj 10 110 s~ outL-d2-1;
#X obj 110 110 s~ outR-d2-1;
#X obj 400 1 r rackloaded;
#X obj 400 30 t b b;
#X msg 400 60 loaddefinitions modules/utility/empty/module.json;
#X obj 400 110 KontrolModule d2-1 utility/empty;
#X obj 600 110 send loadbang-d2-1;
#X connect 0 0 2 0;
#X connect 1 0 2 1;
#X connect 2 0 3 0;
#X connect 2 1 4 0;
#X connect 5 0 6 0;
#X connect 6 0 9 0;
#X connect 6 1 7 0;
#X connect 7 0 8 0;
#X restore 1020 178 pd d2-1;
#N canvas 714 538 943 317 d2-2 0;
#X obj 10 10 r~ inL-d2-2;
#X obj 110 10 r~ inR-d2-2;
#X obj 10 60 modules/utility/empty/module d2-2;
#X obj 10 110 s~ outL-d2-2;
#X obj 110 110 s~ outR-d2-2;
#X obj 400 1 r rackloaded;
#X obj 400 30 t b b;
#X msg 400 60 loaddefinitions modules/utility/empty/module.json;
#X obj 400 110 KontrolModule d2-2 utility/empty;
#X obj 600 110 send loadbang-d2-2;
#X connect 0 0 2 0;
#X connect 1 0 2 1;
#X connect 2 0 3 0;
#X connect 2 1 4 0;
#X connect 5 0 6 0;
#X connect 6 0 9 0;
#X connect 6 1 7 0;
#X connect 7 0 8 0;
#X restore 1020 208 pd d2-2;
#N canvas 714 538 943 317 d2-3 0;
#X obj 10 10 r~ inL-d2-3;
#X obj 110 10 r~ inR-d2-3;
#X obj 10 60 modules/utility/empty/module d2-3;
#X obj 10 110 s~ outL-d2-3;
#X obj 110 110 s~ outR-d2-3;
#X obj 400 1 r rackloaded;
#X obj 400 30 t b b;
#X msg 400 60 loaddefinitions modules/utility/empty/module.json;
#X obj 400 110 KontrolModule d2-3 utility/empty;
#X obj 600 110 send loadbang-d2-3;
#X connect 0 0 2 0;
#X connect 1 0 2 1;
#X connect 2 0 3 0;
#X connect 2 1 4 0;
#X connect 5 0 6 0;
#X connect 6 0 9 0;
#X connect 6 1 7 0;
#X connect 7 0 8 0;
#X restore 1020 238 pd d2-3;
#N canvas 714 538 943 317 d2-4 0;
#X obj 10 10 r~ inL-d2-4;
#X obj 110 10 r~ inR-d2-4;
#X obj 10 60 modules/utility/empty/module d2-4;
#X obj 10 110 s~ outL-d2-4;
#X obj 110 110 s~ outR-d2-4;
#X obj 400 1 r rackloaded;
#X obj 400 30 t b b;
#X msg 400 60 loaddefinitions modules/utility/empty/module.json;
#X obj 400 110 KontrolModule d2-4 utility/empty;
#X obj 600 110 send loadbang-d2-4;
#X connect 0 0 2 0;
#X connect 1 0 2 1;
#X connect 2 0 3 0;
#X connect 2 1 4 0;
#X connect 5 0 6 0;
#X connect 6 0 9 0;
#X connect 6 1 7 0;
#X connect 7 0 8 0;
#X restore 1020 268 pd d2-4;
#N canvas 714 538 943 317 d3-1 0;
#X obj 10 10 r~ inL-d3-1;
#X obj 110 10 r~ inR-d3-1;
#X obj 10 60 modules/utility/empty/module d3-1;
#X obj 10 110 s~ outL-d3-1;
#X obj 110 110 s~ outR-d3-1;
#X obj 400 1 r rackloaded;
#X obj 400 30 t b b;
#X msg 400 60 loaddefinitions modules/utility/empty/module.json;
#X obj 400 110 KontrolModule d3-1 utility/empty;
#X obj 600 110 send loadbang-d3-1;
#X connect 0 0 2 0;
#X connect 1 0 2 1;
#X connect 2 0 3 0;
#X connect 2 1 4 0;
#X connect 5 0 6 0;
#X connect 6 0 9 0;
#X connect 6 1 7 0;
#X connect 7 0 8 0;
#X restore 1096 178 pd d3-1;
#N canvas 714 538 943 317 d3-2 0;
#X obj 10 10 r~ inL-d3-2;
#X obj 110 10 r~ inR-d3-2;
#X obj 10 60 modules/utility/empty/module d3-2;
#X obj 10 110 s~ outL-d3-2;
#X obj 110 110 s~ outR-d3-2;
#X obj 400 1 r rackloaded;
#X obj 400 30 t b b;
#X msg 400 60 loaddefinitions modules/utility/empty/module.json;
#X obj 400 110 KontrolModule d3-2 utility/empty;
#X obj 600 110 send loadbang-d3-2;
#X connect 0 0 2 0;
#X connect 1 0 2 1;
#X connect 2 0 3 0;
#X connect 2 1 4 0;
#X connect 5 0 6 0;
#X connect 6 0 9 0;
#X connect 6 1 7 0;
#X connect 7 0 8 0;
#X restore 1096 208 pd d3-2;
#N canvas 714 538 943 317 d3-3 0;
#X obj 10 10 r~ inL-d3-3;
#X obj 110 10 r~ inR-d3-3;
#X obj 10 60 modules/utility/empty/module d3-3;
#X obj 10 110 s~ outL-d3-3;
#X obj 110 110 s~ outR-d3-3;
#X obj 400 1 r rackloaded;
#X obj 400 30 t b b;
#X msg 400 60 loaddefinitions modules/utility/empty/module.json;
#X obj 400 110 KontrolModule d3-3 utility/empty;
#X obj 600 110 send loadbang-d3-3;
#X connect 0 0 2 0;
#X connect 1 0 2 1;
#X connect 2 0 3 0;
#X connect 2 1 4 0;
#X connect 5 0 6 0;
#X connect 6 0 9 0;
#X connect 6 1 7 0;
#X connect 7 0 8 0;
#X restore 1096 238 pd d3-3;
#N canvas 714 538 943 317 d3-4 0;
#X obj 10 10 r~ inL-d3-4;
#X obj 110 10 r~ inR-d3-4;
#X obj 10 60 modules/utility/empty/module d3-4;
#X obj 10 110 s~ outL-d3-4;
#X obj 110 110 s~ outR-d3-4;
#X obj 400 1 r rackloaded;
#X obj 400 30 t b b;
#X msg 400 60 loaddefinitions modules/utility/empty/module.json;
#X obj 400 110 KontrolModule d3-4 utility/empty;
#X obj 600 110 send loadbang-d3-4;
#X connect 0 0 2 0;
#X connect 1 0 2 1;
#X connect 2 0 3 0;
#X connect 2 1 4 0;
#X connect 5 0 6 0;
#X connect 6 0 9 0;
#X connect 6 1 7 0;
#X connect 7 0 8 0;
#X restore 1096 268 pd d3-4;
#N canvas 714 538 943 317 d4-1 0;
#X obj 10 10 r~ inL-d4-1;
#X obj 110 10 r~ inR-d4-1;
#X obj 10 60 modules/utility/empty/module d4-1;
#X obj 10 110 s~ outL-d4-1;
#X obj 110 110 s~ outR-d4-1;
#X obj 400 1 r rackloaded;
#X obj 400 30 t b b;
#X msg 400 60 loaddefinitions modules/utility/empty/module.json;
#X obj 400 110 KontrolModule d4-1 utility/empty;
#X obj 600 110 send loadbang-d4-1;
#X connect 0 0 2 0;
#X connect 1 0 2 1;
#X connect 2 0 3 0;
#X connect 2 1 4 0;
#X connect 5 0 6 0;
#X connect 6 0 9 0;
#X connect 6 1 7 0;
#X connect 7 0 8 0;
#X restore 1172 178 pd d4-1;
#N canvas 714 538 943 317 d4-2 0;
#X obj 10 10 r~ inL-d4-2;
#X obj 110 10 r~ inR-d4-2;
#X obj 10 60 modules/utility/empty/module d4-2;
#X obj 10 110 s~ outL-d4-2;
#X obj 110 110 s~ outR-d4-2;
#X obj 400 1 r rackloaded;
#X obj 400 30 t b b;
#X msg 400 60 loaddefinitions modules/utility/empty/module.json;
#X obj 400 110 KontrolModule d4-2 utility/empty;
#X obj 600 110 send loadbang-d4-2;
#X connect 0 0 2 0;
#X connect 1 0 2 1;
#X connect 2 0 3 0;
#X connect 2 1 4 0;
#X connect 5 0 6 0;
#X connect 6 0 9 0;
#X connect 6 1 7 0;
#X connect 7 0 8 0;
#X restore 1172 208 pd d4-2;
#N canvas 714 538 943 317 d4-3 0;
#X obj 10 10 r~ inL-d4-3;
#X obj 110 10 r~ inR-d4-3;
#X obj 10 60 modules/utility/empty/module d4-3;
#X obj 10 110 s~ outL-d4-3;
#X obj 110 110 s~ outR-d4-3;
#X obj 400 1 r rackloaded;
#X obj 400 30 t b b;
#X msg 400 60 loaddefinitions modules/utility/empty/module.json;
#X obj 400 110 KontrolModule d4-3 utility/empty;
#X obj 600 110 send loadbang-d4-3;
#X connect 0 0 2 0;
#X connect 1 0 2 1;
#X connect 2 0 3 0;
#X connect 2 1 4 0;
#X connect 5 0 6 0;
#X connect 6 0 9 0;
#X connect 6 1 7 0;
#X connect 7 0 8 0;
#X restore 1172 238 pd d4-3;
#N canvas 714 538 943 317 d4-4 0;
#X obj 10 10 r~ inL-d4-4;
#X obj 110 10 r~ inR-d4-4;
#X obj 10 60 modules/utility/empty/module d4-4;
#X obj 10 110 s~ outL-d4-4;
#X obj 110 110 s~ outR-d4-4;
#X obj 400 1 r rackloaded;
#X obj 400 30 t b b;
#X msg 400 60 loaddefinitions modules/utility/empty/module.json;
#X obj 400 110 KontrolModule d4-4 utility/empty;
#X obj 600 110 send loadbang-d4-4;
#X connect 0 0 2 0;
#X connect 1 0 2 1;
#X connect 2 0 3 0;
#X connect 2 1 4 0;
#X connect 5 0 6 0;
#X connect 6 0 9 0;
#X connect 6 1 7 0;
#X connect 7 0 8 0;
#X restore 1172 268 pd d4-4;