#N canvas 0 54 1918 997 10;
#X obj 307 33 r notesIn-\$1;
#X obj 304 463 s notesOut-\$1;
#X obj 28 33 inlet~ inL-\$1;
#X obj 138 33 inlet~ inR-\$1;
#X obj 27 463 outlet~ outL-\$1;
#X obj 136 463 outlet~ outR-\$1;
#X obj 427 32 r auxIn-\$1;
#X obj 426 55 r expIn-\$1;
#X obj 426 80 r fsIn-\$1;
#X obj 40 355 *~, f 7;
#X obj 504 36 r ctrlIn-\$1;
#X obj 504 62 s ctrlOut-\$1;
#X obj 154 372 *~, f 7;
#X obj 164 103 r pgain_gon-\$1;
#X obj 165 128 / 100;
#X obj 173 178 *;
#X obj 165 153 t f f;
#X obj 171 294 sig~;
#X obj 358 129 / 100;
#X obj 358 177 *;
#X obj 358 154 t f f;
#X obj 357 104 r pgain_goff-\$1;
#X obj 268 153 tgl 15 0 empty empty empty 17 7 0 10 -262144 -1 -1 0
1;
#X obj 182 201 f;
#X obj 348 203 f;
#X obj 493 113 r pgain_grps-\$1;
#X obj 538 178 r pgain_bars-\$1;
#X obj 520 238 *;
#X obj 494 140 expr ($f1 & 1) + (($f1 & 2) << 3) + (($f1 & 4) << 6)
+ (($f1 & 8) << 9);
#X obj 634 260 r track;
#X obj 527 449 s serialOscOut;
#X msg 527 419 send /pattern \$1;
#X obj 538 208 t b f;
#X obj 579 297 f;
#X obj 556 386 f;
#X obj 598 335 sel;
#X obj 575 360 t b;
#X floatatom 639 325 5 0 0 0 - - -, f 5;
#X obj 613 364 bng 15 250 50 0 empty empty empty 17 7 0 10 -262144
-1 -1;
#X obj 548 270 t b;
#X obj 436 300 r bar;
#X obj 436 355 expr 1 << $f1;
#X floatatom 436 375 5 0 0 0 - - -, f 5;
#X obj 436 416 &;
#X obj 268 104 r pgainOn-\$1;
#X obj 436 435 s pgainOn-\$1;
#X floatatom 398 328 5 0 0 0 - - -, f 5;
#X obj 214 264 f;
#X obj 283 245 spigot;
#X obj 228 233 spigot;
#X obj 284 175 == 0;
#X obj 223 169 t b;
#X obj 309 200 t b;
#X obj 174 319 lop~ 5;
#X connect 2 0 9 0;
#X connect 3 0 12 0;
#X connect 9 0 4 0;
#X connect 12 0 5 0;
#X connect 13 0 14 0;
#X connect 14 0 16 0;
#X connect 15 0 23 0;
#X connect 16 0 15 0;
#X connect 16 1 15 1;
#X connect 17 0 53 0;
#X connect 18 0 20 0;
#X connect 19 0 24 0;
#X connect 20 0 19 0;
#X connect 20 1 19 1;
#X connect 21 0 18 0;
#X connect 22 0 49 1;
#X connect 22 0 50 0;
#X connect 22 0 51 0;
#X connect 23 0 49 0;
#X connect 24 0 48 0;
#X connect 25 0 28 0;
#X connect 26 0 32 0;
#X connect 27 0 31 0;
#X connect 27 0 34 0;
#X connect 27 0 39 0;
#X connect 28 0 27 0;
#X connect 29 0 33 1;
#X connect 29 0 35 0;
#X connect 31 0 30 0;
#X connect 32 0 27 0;
#X connect 32 1 27 1;
#X connect 33 0 35 1;
#X connect 33 0 37 0;
#X connect 34 0 31 0;
#X connect 34 0 43 1;
#X connect 35 0 36 0;
#X connect 35 0 38 0;
#X connect 36 0 34 0;
#X connect 39 0 33 0;
#X connect 40 0 41 0;
#X connect 40 0 46 0;
#X connect 41 0 42 0;
#X connect 42 0 43 0;
#X connect 43 0 45 0;
#X connect 44 0 22 0;
#X connect 47 0 17 0;
#X connect 48 0 47 0;
#X connect 49 0 47 0;
#X connect 50 0 48 1;
#X connect 50 0 52 0;
#X connect 51 0 23 0;
#X connect 52 0 24 0;
#X connect 53 0 12 1;
#X connect 53 0 9 1;
